<svg width="607" height="607" viewBox="0 0 607 607" fill="none" xmlns="http://www.w3.org/2000/svg">
<circle cx="303.5" cy="303.5" r="302.5" fill="black" stroke="#626C79" stroke-width="2"/>
<circle cx="303.5" cy="303.5" r="302.5" fill="url(#paint0_linear_20_37)" fill-opacity="0.21" stroke="#626C79" stroke-width="2"/>
<path d="M199.369 466.193C199.454 467.463 199.285 469.367 198.861 471.906C198.523 474.445 197.93 476.984 197.084 479.523C196.238 482.062 195.137 484.305 193.783 486.252C192.514 488.114 191.033 489.045 189.34 489.045C188.493 489.045 187.774 488.537 187.182 487.521C186.589 486.506 186.081 485.194 185.658 483.586C185.235 481.978 184.896 480.201 184.643 478.254C184.389 476.223 184.135 474.276 183.881 472.414C183.712 470.552 183.542 468.859 183.373 467.336C183.288 465.728 183.204 464.543 183.119 463.781C182.781 463.273 182.146 462.766 181.215 462.258C180.368 461.665 179.607 461.369 178.93 461.369C178.168 461.369 177.237 462.089 176.137 463.527C175.121 464.966 174.148 466.659 173.217 468.605C172.286 470.552 171.524 472.499 170.932 474.445C170.339 476.307 170.085 477.746 170.17 478.762C170.17 479.439 170.805 480.624 172.074 482.316C173.428 484.009 175.079 485.998 177.025 488.283C178.972 490.568 181.088 493.065 183.373 495.773C185.658 498.397 187.774 501.021 189.721 503.645C191.667 506.268 193.318 508.765 194.672 511.135C196.026 513.505 196.745 515.536 196.83 517.229C196.999 519.26 196.534 521.883 195.434 525.1C194.418 528.231 193.106 531.278 191.498 534.24C189.89 537.202 188.155 539.784 186.293 541.984C184.516 544.1 182.908 545.201 181.469 545.285C180.538 545.37 179.311 544.947 177.787 544.016C176.264 543.169 174.613 542.027 172.836 540.588C171.059 539.149 169.239 537.583 167.377 535.891C165.6 534.113 163.907 532.378 162.299 530.686C160.775 528.993 159.464 527.469 158.363 526.115C157.348 524.676 156.755 523.618 156.586 522.941C156.247 521.926 156.036 520.572 155.951 518.879C155.951 517.102 156.036 515.409 156.205 513.801C156.459 512.108 156.755 510.669 157.094 509.484C157.517 508.215 158.025 507.58 158.617 507.58C159.04 507.58 159.717 508.13 160.648 509.23C161.664 510.331 162.807 511.727 164.076 513.42C165.346 515.113 166.7 516.975 168.139 519.006C169.662 520.952 171.101 522.772 172.455 524.465C173.809 526.158 175.036 527.596 176.137 528.781C177.237 529.882 178.126 530.389 178.803 530.305C179.311 530.305 179.861 529.924 180.453 529.162C181.046 528.316 181.596 527.342 182.104 526.242C182.611 525.057 183.035 523.872 183.373 522.688C183.712 521.503 183.881 520.572 183.881 519.895C183.796 518.879 182.95 517.44 181.342 515.578C179.818 513.632 177.872 511.473 175.502 509.104C173.217 506.649 170.72 504.11 168.012 501.486C165.388 498.863 162.891 496.366 160.521 493.996C158.236 491.542 156.29 489.341 154.682 487.395C153.158 485.448 152.354 483.967 152.27 482.951C152.185 481.936 152.481 480.37 153.158 478.254C153.835 476.053 154.724 473.599 155.824 470.891C157.009 468.182 158.321 465.432 159.76 462.639C161.199 459.846 162.68 457.264 164.203 454.895C165.727 452.525 167.208 450.62 168.646 449.182C170.085 447.658 171.355 446.896 172.455 446.896C173.894 446.896 175.544 447.235 177.406 447.912C179.268 448.505 181.173 449.351 183.119 450.451C185.15 451.467 187.097 452.652 188.959 454.006C190.906 455.36 192.641 456.757 194.164 458.195C195.688 459.549 196.915 460.946 197.846 462.385C198.777 463.739 199.285 465.008 199.369 466.193ZM232.377 473.557C232.969 474.064 233.52 475.038 234.027 476.477C234.62 477.915 235.128 479.65 235.551 481.682C235.974 483.713 236.355 485.913 236.693 488.283C237.032 490.653 237.328 492.98 237.582 495.266C237.836 497.551 238.005 499.709 238.09 501.74C238.259 503.687 238.386 505.295 238.471 506.564C238.555 508.088 238.598 509.696 238.598 511.389C238.682 512.997 238.682 514.562 238.598 516.086C238.598 517.525 238.513 518.837 238.344 520.021C238.259 521.206 238.09 522.095 237.836 522.688C237.328 523.957 236.439 524.846 235.17 525.354C233.985 525.777 232.631 526.073 231.107 526.242C230.346 526.327 229.034 526.369 227.172 526.369C225.395 526.285 223.448 526.2 221.332 526.115C219.301 525.946 217.354 525.777 215.492 525.607C213.63 525.438 212.234 525.269 211.303 525.1C209.441 524.676 208.087 524.126 207.24 523.449C206.479 522.772 205.717 521.799 204.955 520.529C204.701 520.021 204.49 518.752 204.32 516.721C204.151 514.605 204.024 512.108 203.939 509.23C203.939 506.268 203.982 503.094 204.066 499.709C204.151 496.324 204.278 493.107 204.447 490.061C204.701 487.014 204.955 484.348 205.209 482.062C205.548 479.777 205.971 478.254 206.479 477.492C207.325 476.307 208.764 475.207 210.795 474.191C212.911 473.176 214.815 472.372 216.508 471.779C217.354 471.525 218.454 471.356 219.809 471.271C221.247 471.102 222.729 471.102 224.252 471.271C225.86 471.356 227.383 471.61 228.822 472.033C230.261 472.372 231.446 472.88 232.377 473.557ZM225.268 512.912C225.437 512.574 225.606 511.558 225.775 509.865C226.029 508.088 226.199 505.972 226.283 503.518C226.452 501.063 226.537 498.439 226.537 495.646C226.622 492.854 226.664 490.272 226.664 487.902C226.664 485.533 226.579 483.544 226.41 481.936C226.241 480.243 226.029 479.27 225.775 479.016C225.352 478.677 224.717 478.55 223.871 478.635C223.109 478.635 222.305 478.762 221.459 479.016C220.613 479.185 219.851 479.439 219.174 479.777C218.497 480.031 218.031 480.285 217.777 480.539C216.677 481.47 216.085 482.993 216 485.109C216 485.702 215.915 487.395 215.746 490.188C215.661 492.896 215.619 495.858 215.619 499.074C215.619 502.206 215.661 505.126 215.746 507.834C215.915 510.542 216.212 512.193 216.635 512.785C217.058 513.378 217.65 513.843 218.412 514.182C219.258 514.436 220.105 514.562 220.951 514.562C221.882 514.562 222.729 514.436 223.49 514.182C224.337 513.843 224.929 513.42 225.268 512.912ZM296.742 467.844C298.35 469.198 299.535 471.906 300.297 475.969C301.059 479.947 301.355 484.39 301.186 489.299C301.101 490.822 300.889 492.938 300.551 495.646C300.212 498.27 299.789 501.19 299.281 504.406C298.858 507.538 298.35 510.754 297.758 514.055C297.25 517.355 296.742 520.402 296.234 523.195C295.727 525.988 295.261 528.358 294.838 530.305C294.499 532.167 294.288 533.267 294.203 533.605C294.034 534.198 293.568 534.79 292.807 535.383C292.045 535.975 291.241 536.483 290.395 536.906C289.633 537.245 288.871 537.499 288.109 537.668C287.348 537.753 286.882 537.583 286.713 537.16C286.628 536.906 286.628 535.594 286.713 533.225C286.798 530.855 286.924 527.935 287.094 524.465C287.263 520.91 287.432 517.144 287.602 513.166C287.855 509.104 288.067 505.295 288.236 501.74C288.406 498.186 288.575 495.181 288.744 492.727C288.913 490.188 288.998 488.664 288.998 488.156C289.083 485.533 288.871 483.247 288.363 481.301C287.855 479.27 287.009 478.254 285.824 478.254C285.401 478.254 284.893 478.465 284.301 478.889C283.708 479.227 283.116 479.65 282.523 480.158C282.016 480.666 281.508 481.216 281 481.809C280.577 482.401 280.365 482.951 280.365 483.459C280.281 484.982 280.154 487.225 279.984 490.188C279.9 493.15 279.773 496.408 279.604 499.963C279.519 503.518 279.392 507.157 279.223 510.881C279.138 514.605 279.011 518.033 278.842 521.164C278.757 524.296 278.673 526.919 278.588 529.035C278.503 531.066 278.419 532.209 278.334 532.463C278.165 532.801 277.615 533.055 276.684 533.225C275.837 533.309 274.864 533.309 273.764 533.225C272.663 533.14 271.648 532.928 270.717 532.59C269.87 532.251 269.363 531.786 269.193 531.193C269.024 530.77 268.897 529.501 268.812 527.385C268.728 525.184 268.601 522.561 268.432 519.514C268.347 516.467 268.262 513.208 268.178 509.738C268.093 506.184 268.008 502.883 267.924 499.836C267.839 496.789 267.755 494.165 267.67 491.965C267.67 489.764 267.67 488.41 267.67 487.902C267.67 485.871 267.501 484.263 267.162 483.078C266.824 481.809 266.4 480.835 265.893 480.158C265.469 479.396 264.962 478.931 264.369 478.762C263.777 478.508 263.184 478.381 262.592 478.381C262.338 478.381 261.957 478.592 261.449 479.016C260.941 479.354 260.434 479.904 259.926 480.666C259.418 481.343 258.995 482.147 258.656 483.078C258.318 483.924 258.191 484.855 258.275 485.871C258.275 486.294 258.318 487.86 258.402 490.568C258.487 493.277 258.529 496.535 258.529 500.344C258.614 504.152 258.699 508.257 258.783 512.658C258.868 517.059 258.91 521.164 258.91 524.973C258.995 528.697 259.037 531.87 259.037 534.494C259.037 537.033 259.037 538.387 259.037 538.557C258.868 538.98 258.402 539.234 257.641 539.318C256.879 539.318 256.033 539.149 255.102 538.811C254.171 538.472 253.282 538.007 252.436 537.414C251.589 536.737 250.997 535.933 250.658 535.002C250.489 534.325 250.235 532.844 249.896 530.559C249.558 528.273 249.177 525.565 248.754 522.434C248.331 519.217 247.908 515.79 247.484 512.15C247.061 508.426 246.638 504.872 246.215 501.486C245.792 498.016 245.411 494.885 245.072 492.092C244.818 489.299 244.607 487.183 244.438 485.744C244.184 483.713 243.887 481.512 243.549 479.143C243.295 476.688 243.041 474.361 242.787 472.16C242.618 469.875 242.491 467.928 242.406 466.32C242.322 464.628 242.406 463.57 242.66 463.146C242.829 462.808 243.422 462.681 244.438 462.766C245.538 462.85 246.68 463.104 247.865 463.527C249.135 463.866 250.32 464.374 251.42 465.051C252.605 465.643 253.367 466.278 253.705 466.955C253.959 467.463 254.213 468.098 254.467 468.859C254.805 469.536 255.144 470.637 255.482 472.16C256.921 471.06 258.402 470.044 259.926 469.113C261.449 468.098 262.973 467.336 264.496 466.828C266.02 466.236 267.458 465.939 268.812 465.939C270.251 465.855 271.605 466.236 272.875 467.082C273.975 467.928 275.033 469.41 276.049 471.525C280.111 469.24 284.005 467.674 287.729 466.828C291.537 465.897 294.542 466.236 296.742 467.844ZM310.326 461.242C310.749 460.48 311.638 459.507 312.992 458.322C314.346 457.053 315.954 455.783 317.816 454.514C319.763 453.244 321.837 452.102 324.037 451.086C326.238 449.986 328.438 449.266 330.639 448.928C332.924 448.505 335.04 448.589 336.986 449.182C339.018 449.689 340.753 450.874 342.191 452.736C342.953 453.667 343.673 455.529 344.35 458.322C345.027 461.115 345.661 464.501 346.254 468.479C346.931 472.372 347.523 476.73 348.031 481.555C348.539 486.294 348.962 491.161 349.301 496.154C349.639 501.063 349.851 505.93 349.936 510.754C350.105 515.493 350.105 519.895 349.936 523.957C349.851 527.935 349.597 531.363 349.174 534.24C348.835 537.033 348.285 538.98 347.523 540.08C346 542.281 343.63 543.762 340.414 544.523C337.198 545.285 333.812 545.285 330.258 544.523C326.703 543.846 323.318 542.408 320.102 540.207C316.885 538.007 314.516 535.044 312.992 531.32C311.977 528.866 311.13 525.523 310.453 521.291C309.861 517.059 309.395 512.489 309.057 507.58C308.718 502.587 308.507 497.508 308.422 492.346C308.422 487.183 308.464 482.443 308.549 478.127C308.718 473.726 308.93 470.002 309.184 466.955C309.522 463.908 309.903 462.004 310.326 461.242ZM335.209 525.607C335.717 525.1 336.055 523.745 336.225 521.545C336.479 519.26 336.605 516.594 336.605 513.547C336.69 510.415 336.69 507.115 336.605 503.645C336.605 500.174 336.605 496.958 336.605 493.996C336.605 486.464 336.352 480.624 335.844 476.477C335.336 472.329 334.743 469.24 334.066 467.209C333.305 464.839 332.458 463.358 331.527 462.766C330.258 463.02 329.2 463.443 328.354 464.035C327.507 464.543 326.83 465.135 326.322 465.812C325.73 466.574 325.264 467.378 324.926 468.225C324.672 468.986 324.376 470.467 324.037 472.668C323.783 474.868 323.529 477.492 323.275 480.539C323.021 483.501 322.768 486.76 322.514 490.314C322.344 493.785 322.175 497.212 322.006 500.598C321.921 503.983 321.837 507.199 321.752 510.246C321.752 513.208 321.794 515.663 321.879 517.609C322.048 520.572 322.725 522.73 323.91 524.084C325.18 525.438 326.534 526.327 327.973 526.75C329.411 527.089 330.808 527.089 332.162 526.75C333.601 526.411 334.617 526.031 335.209 525.607ZM388.656 465.432C389.503 465.939 390.307 466.87 391.068 468.225C391.915 469.494 392.676 471.018 393.354 472.795C394.031 474.488 394.581 476.35 395.004 478.381C395.427 480.327 395.639 482.189 395.639 483.967C395.639 485.829 395.3 488.41 394.623 491.711C394.031 494.927 393.311 498.186 392.465 501.486C391.618 504.787 390.814 507.749 390.053 510.373C389.291 512.997 388.783 514.562 388.529 515.07C388.021 517.017 387.344 518.413 386.498 519.26C385.652 519.937 384.509 520.445 383.07 520.783C381.716 521.037 380.32 521.206 378.881 521.291C377.442 521.376 376.046 521.376 374.691 521.291C373.337 521.122 372.279 520.91 371.518 520.656C371.433 520.656 371.137 520.572 370.629 520.402C370.629 523.788 370.587 527.258 370.502 530.812C370.417 533.859 370.333 537.287 370.248 541.096C370.163 544.82 370.079 548.586 369.994 552.395C369.825 553.156 369.486 554.045 368.979 555.061C368.555 556.076 368.005 557.007 367.328 557.854C366.651 558.785 365.932 559.546 365.17 560.139C364.493 560.731 363.858 560.943 363.266 560.773C362.927 560.689 362.546 559.208 362.123 556.33C361.785 553.537 361.404 549.813 360.98 545.158C360.642 540.588 360.261 535.34 359.838 529.416C359.415 523.492 359.034 517.44 358.695 511.262C358.357 505.083 358.061 499.032 357.807 493.107C357.637 487.098 357.468 481.766 357.299 477.111C357.214 472.372 357.214 468.521 357.299 465.559C357.383 462.512 357.595 460.861 357.934 460.607C358.188 460.354 358.695 460.396 359.457 460.734C360.219 460.988 361.065 461.496 361.996 462.258C363.012 462.935 364.027 463.824 365.043 464.924C366.143 465.939 367.117 467.082 367.963 468.352C372.11 466.49 376.046 465.178 379.77 464.416C383.493 463.654 386.456 463.993 388.656 465.432ZM383.324 484.094C383.324 482.74 383.113 481.428 382.689 480.158C382.351 478.804 381.885 477.661 381.293 476.73C380.701 475.715 380.066 474.953 379.389 474.445C378.796 473.853 378.246 473.641 377.738 473.811C375.622 474.318 373.845 474.911 372.406 475.588C371.645 475.926 371.01 476.307 370.502 476.73C370.671 479.439 370.756 483.163 370.756 487.902C370.84 492.557 370.883 497.678 370.883 503.264C370.883 505.718 370.967 507.368 371.137 508.215C371.221 510.246 371.729 511.643 372.66 512.404C372.914 512.658 373.295 512.954 373.803 513.293C374.311 513.547 374.861 513.801 375.453 514.055C376.046 514.224 376.638 514.351 377.23 514.436C377.823 514.436 378.331 514.266 378.754 513.928C378.839 513.843 379.008 513.081 379.262 511.643C379.6 510.119 379.939 508.299 380.277 506.184C380.616 503.983 380.954 501.656 381.293 499.201C381.716 496.662 382.055 494.335 382.309 492.219C382.647 490.018 382.901 488.156 383.07 486.633C383.24 485.109 383.324 484.263 383.324 484.094ZM410.746 506.311C412.1 505.803 413.624 505.253 415.316 504.66C417.094 503.983 418.786 503.391 420.395 502.883C422.003 502.29 423.441 501.783 424.711 501.359C425.98 500.936 426.911 500.598 427.504 500.344C427.419 499.413 427.292 498.355 427.123 497.17C427.038 495.9 426.911 494.715 426.742 493.615C426.573 492.43 426.361 491.415 426.107 490.568C425.854 489.722 425.6 489.214 425.346 489.045C424.669 488.791 423.526 488.579 421.918 488.41C420.395 488.156 418.786 488.199 417.094 488.537C415.486 488.876 414.005 489.51 412.65 490.441C411.296 491.372 410.535 492.854 410.365 494.885C410.196 496.239 410.154 497.932 410.238 499.963C410.323 501.994 410.492 504.11 410.746 506.311ZM438.295 508.342C438.21 508.511 437.195 508.85 435.248 509.357C433.301 509.865 430.974 510.415 428.266 511.008C425.557 511.516 422.68 512.066 419.633 512.658C416.586 513.166 413.962 513.589 411.762 513.928C412.185 517.313 412.693 520.36 413.285 523.068C413.878 525.692 414.385 527.342 414.809 528.02C415.232 528.612 415.782 529.162 416.459 529.67C417.051 530.093 417.771 530.516 418.617 530.939C419.548 531.278 420.648 531.532 421.918 531.701C422.849 531.955 423.738 531.617 424.584 530.686C425.261 529.839 425.854 528.358 426.361 526.242C426.954 524.126 427.25 520.783 427.25 516.213C429.874 515.79 431.905 515.536 433.344 515.451C434.867 515.367 435.967 515.367 436.645 515.451C437.491 515.536 437.999 515.663 438.168 515.832C438.253 516.086 438.253 516.721 438.168 517.736C438.083 518.752 437.872 520.021 437.533 521.545C437.279 522.984 436.941 524.592 436.518 526.369C436.179 528.062 435.756 529.712 435.248 531.32C434.74 532.844 434.19 534.24 433.598 535.51C433.005 536.695 432.37 537.541 431.693 538.049C429.662 539.572 427.123 540.334 424.076 540.334C421.029 540.249 418.025 539.826 415.062 539.064C412.1 538.218 409.434 537.245 407.064 536.145C404.695 534.96 403.214 533.986 402.621 533.225C402.198 532.717 401.817 531.447 401.479 529.416C401.14 527.3 400.844 524.761 400.59 521.799C400.421 518.837 400.294 515.578 400.209 512.023C400.124 508.469 400.167 504.999 400.336 501.613C400.59 498.228 400.928 495.096 401.352 492.219C401.859 489.341 402.536 487.014 403.383 485.236C404.652 482.697 406.726 480.624 409.604 479.016C412.481 477.408 415.528 476.307 418.744 475.715C421.96 475.122 425.007 475.038 427.885 475.461C430.847 475.884 433.048 476.815 434.486 478.254C435.333 479.1 436.094 480.793 436.771 483.332C437.449 485.786 437.872 488.791 438.041 492.346C438.041 492.684 438.083 493.658 438.168 495.266C438.253 496.874 438.295 498.609 438.295 500.471C438.38 502.248 438.422 503.941 438.422 505.549C438.422 507.157 438.38 508.088 438.295 508.342ZM482.602 489.807C482.602 491.161 482.432 493.107 482.094 495.646C481.84 498.186 481.459 500.979 480.951 504.025C480.443 506.988 479.893 510.077 479.301 513.293C478.793 516.424 478.243 519.302 477.65 521.926C477.143 524.549 476.677 526.75 476.254 528.527C475.915 530.305 475.704 531.278 475.619 531.447C475.45 531.701 474.984 531.87 474.223 531.955C473.546 531.955 472.742 531.87 471.811 531.701C470.964 531.532 470.16 531.278 469.398 530.939C468.721 530.601 468.298 530.178 468.129 529.67C468.044 529.331 468.002 528.146 468.002 526.115C468.087 524.084 468.171 521.672 468.256 518.879C468.425 516.001 468.594 512.954 468.764 509.738C468.933 506.438 469.102 503.391 469.271 500.598C469.525 497.72 469.695 495.266 469.779 493.234C469.949 491.203 470.033 489.976 470.033 489.553C470.033 488.029 469.864 486.59 469.525 485.236C469.271 483.798 468.933 482.57 468.51 481.555C468.087 480.539 467.579 479.777 466.986 479.27C466.479 478.677 466.013 478.465 465.59 478.635C464.49 478.804 463.559 479.1 462.797 479.523C462.035 479.862 461.4 480.243 460.893 480.666C460.3 481.174 459.835 481.766 459.496 482.443C459.411 482.613 459.242 483.12 458.988 483.967C458.819 484.813 458.734 485.786 458.734 486.887C458.734 487.225 458.734 488.452 458.734 490.568C458.734 492.6 458.692 495.054 458.607 497.932C458.607 500.809 458.565 503.941 458.48 507.326C458.48 510.627 458.438 513.716 458.354 516.594C458.354 519.387 458.311 521.799 458.227 523.83C458.142 525.861 458.057 527.004 457.973 527.258C457.803 527.766 457.38 528.485 456.703 529.416C456.026 530.262 455.264 531.066 454.418 531.828C453.572 532.59 452.768 533.182 452.006 533.605C451.244 533.944 450.736 533.859 450.482 533.352C450.229 533.098 449.975 531.87 449.721 529.67C449.467 527.385 449.171 524.634 448.832 521.418C448.578 518.117 448.282 514.562 447.943 510.754C447.605 506.861 447.309 503.137 447.055 499.582C446.801 496.027 446.589 492.811 446.42 489.934C446.251 487.056 446.124 484.982 446.039 483.713C445.954 481.936 445.87 479.947 445.785 477.746C445.701 475.461 445.616 473.345 445.531 471.398C445.531 469.367 445.531 467.632 445.531 466.193C445.616 464.67 445.785 463.739 446.039 463.4C446.208 463.062 446.758 462.977 447.689 463.146C448.705 463.316 449.763 463.654 450.863 464.162C452.048 464.585 453.148 465.135 454.164 465.812C455.18 466.405 455.857 466.997 456.195 467.59C456.365 468.098 456.576 468.69 456.83 469.367C457.084 469.96 457.296 470.975 457.465 472.414C458.904 471.568 460.469 470.806 462.162 470.129C463.855 469.367 465.505 468.817 467.113 468.479C468.806 468.055 470.414 467.928 471.938 468.098C473.461 468.182 474.815 468.605 476 469.367C476.762 469.96 477.523 470.975 478.285 472.414C479.132 473.853 479.851 475.546 480.443 477.492C481.12 479.439 481.628 481.512 481.967 483.713C482.39 485.829 482.602 487.86 482.602 489.807Z" fill="url(#paint1_linear_20_37)"/>
<mask id="mask0_20_37" style="mask-type:luminance" maskUnits="userSpaceOnUse" x="294" y="82" width="30" height="43">
<path d="M294.667 82.0156H324V124.333H294.667V82.0156Z" fill="white"/>
</mask>
<g mask="url(#mask0_20_37)">
<path d="M311.229 124.229C310.458 118.052 309.583 111.875 309.177 105.677C311.557 111.469 313.344 117.464 315.542 123.339C317.974 118.688 321.818 113.682 323.083 108.422C324.005 104.604 322.922 100.62 320.495 97.5365C316.781 92.8177 312.531 88.4896 308.161 84.3802C305.885 82.0625 301.396 82.4896 300.177 85.7031C297.922 91.4896 296.182 97.526 294.984 103.635C294.255 107.339 295.161 111.245 297.609 114.115C301.172 118.281 307.068 121 311.229 124.229Z" fill="url(#paint2_linear_20_37)"/>
</g>
<path d="M436.979 226.099C436.37 237.807 435.599 249.49 435.333 261.214C451.286 249.104 466.099 235.531 481.401 222.604C469.188 238.682 455.693 253.719 443.583 269.833C455.615 270.078 467.604 268.448 479.594 267.62C491.422 266.823 502.557 258.146 505.604 246.604C509.302 233.354 512.859 220.068 516.495 206.818C518.063 200.62 518.833 192.755 513.63 188.021C508.734 183.651 501.563 184.604 495.807 186.411C483.005 190.396 470.162 194.276 457.359 198.26C445.495 201.859 437.161 213.849 436.979 226.099Z" fill="url(#paint3_linear_20_37)"/>
<path d="M367.073 318.464C359.818 324.255 356.531 334.807 359.729 343.589C363.266 353.76 366.911 363.891 370.49 374.036C372.255 378.719 375.266 384.12 380.729 384.844C385.828 385.464 390.016 381.646 392.901 377.917C399.354 369.641 405.88 361.412 412.333 353.13C418.359 345.521 418.365 334.089 413.01 326.13C408.172 318.333 403.453 310.474 398.385 302.818C393.536 317.729 390.073 333.073 386.005 348.214C386.682 332.422 388.641 316.729 389.234 300.958C381.391 306.177 374.406 312.573 367.073 318.464Z" fill="url(#paint4_linear_20_37)"/>
<path d="M246.589 364.51C245.979 354.776 245.432 345.042 244.453 335.328C233.198 345.51 223.828 357.578 213.078 368.286C220.458 354.839 229.437 342.318 237.182 329.089C227.286 329.984 217.672 332.526 207.958 334.411C196.906 336.63 189 347.234 188.714 358.313C187.411 369.792 184.609 381.13 184.286 392.734C183.818 400.115 192.292 405.682 198.995 402.792C210.542 398.448 221.615 392.896 232.911 387.938C241.875 384.099 247.24 374.078 246.589 364.51Z" fill="url(#paint5_linear_20_37)"/>
<path d="M319.115 140.932C320.031 150.729 321.292 160.505 322.588 170.255C323.562 178 330.005 184.5 337.484 186.354C345.635 188.609 353.927 190.495 362.255 192.021C356.12 180.906 349.516 170.052 343.437 158.917C352.156 168.286 360.021 178.448 368.698 187.875C370.182 177.573 372.172 167.068 371.281 156.661C369.062 144.917 356.667 141.219 347.323 136.688C340.167 133.74 333.359 127.969 325.151 129.25C320.193 130.63 318.385 136.302 319.115 140.932Z" fill="url(#paint6_linear_20_37)"/>
<path d="M215.521 208.359C210.417 211.63 210.703 220.594 216.13 223.38C220.698 226.203 225.698 228.234 230.432 230.734C238.542 235.427 248.193 240.286 257.521 235.693C265.286 230.474 271.443 223.219 278.354 216.917C266.646 215.901 254.901 215.536 243.198 214.641C254.635 212.161 266.401 211.938 277.943 210.068C272.802 204.318 266.708 199.5 260.49 194.969C254.37 189.828 244.922 190.115 238.437 194.422C230.859 199.156 222.896 203.323 215.521 208.359Z" fill="url(#paint7_linear_20_37)"/>
<mask id="mask1_20_37" style="mask-type:luminance" maskUnits="userSpaceOnUse" x="204" y="191" width="222" height="265">
<path d="M204 191H425.333V455.016H204V191Z" fill="white"/>
</mask>
<g mask="url(#mask1_20_37)">
<path d="M326.188 354.427C329.01 342.339 335.578 331.286 343.849 322.099C363.375 300.76 391.703 291.495 418.729 283.813C396.234 286.818 373.313 290.458 352.708 300.479C342.219 305.536 333.339 313.297 325.76 322.057C328.667 273.328 346.714 222.766 386.115 191.755C363.802 197.854 346.672 214.479 333.219 232.521C329.521 226.161 326.49 219.193 320.906 214.172C308.813 202.021 290.766 199.255 274.37 199.094C285.547 201.859 297.047 205.026 306.271 212.302C316.964 220.292 322.875 233.276 324.458 246.281C322.188 252.318 318.609 257.76 315.948 263.656C305.052 287.068 298.042 312.161 293.818 337.583C286.99 330.453 278.271 325.333 268.802 322.589C250.672 317.224 231.026 317.281 212.776 322.057C241.755 321.651 273.984 330.938 291.193 355.833C287.781 380.526 287.844 405.536 290.443 430.292C260.672 432.526 231.083 440.328 204.932 454.901C228.568 450.51 252.359 446.792 276.401 445.469C326.089 442.646 376.505 443.802 425.193 455.042C399.547 439.859 369.88 432.849 340.432 430.25C334.193 405.333 327.042 380.24 326.188 354.427Z" fill="url(#paint8_linear_20_37)"/>
</g>
<path d="M195.411 155.984C196.911 163.526 203.214 169.901 210.891 171.01C219.391 172.333 228.031 172.599 236.625 172.917C229.599 163.51 221.766 154.755 214.375 145.646C224.24 152.37 232.604 161 242.318 167.932C242.021 160.313 241.76 152.698 241.042 145.115C240.385 137.005 234.849 128.953 226.635 127.031C217.172 124.599 207.974 121.089 198.365 119.328C193.042 118.156 186.76 122.849 187.984 128.526C189.573 137.87 192.891 146.849 195.411 155.984Z" fill="url(#paint9_linear_20_37)"/>
<path d="M125.917 129.62C127.74 133.609 132.078 136.328 136.49 135.932C141.38 135.557 146.219 134.568 151.031 133.615C145.891 129.313 140.396 125.479 135.094 121.391C141.453 123.828 147.234 127.526 153.536 130.099C152.375 125.906 151.229 121.714 149.833 117.594C148.406 113.177 144.271 109.432 139.458 109.443C133.885 109.333 128.312 108.589 122.745 108.875C119.635 108.922 116.766 112.354 118.193 115.344C120.297 120.323 123.318 124.875 125.917 129.62Z" fill="url(#paint10_linear_20_37)"/>
<path d="M92.4583 177.344C97.4323 179.464 102.766 180.635 107.932 182.245C112.016 183.849 117.021 182.786 119.922 179.438C123.177 175.766 125.969 171.693 128.766 167.667C122.083 168.141 115.469 169.203 108.813 169.948C115.083 167.281 121.807 165.927 128.13 163.396C124.38 161.188 120.641 158.969 116.776 156.974C112.677 154.792 107.104 154.969 103.651 158.318C99.5625 162.115 95.0417 165.453 91.2344 169.526C89.0313 171.719 89.349 176.182 92.4583 177.344Z" fill="url(#paint11_linear_20_37)"/>
<path d="M128.214 205.693C135.12 208.635 142.531 210.266 149.698 212.495C155.37 214.719 162.318 213.25 166.344 208.599C170.865 203.5 174.74 197.849 178.63 192.255C169.349 192.917 160.161 194.396 150.922 195.427C159.625 191.724 168.958 189.839 177.74 186.328C172.531 183.266 167.344 180.182 161.979 177.417C156.292 174.38 148.547 174.63 143.755 179.281C138.083 184.552 131.802 189.182 126.516 194.839C123.464 197.885 123.901 204.083 128.214 205.693Z" fill="url(#paint12_linear_20_37)"/>
<path d="M66.0781 198.932C64.0417 196.557 62.0261 194.182 59.8698 191.927C57.5938 189.49 53.7708 188.307 50.6458 189.776C46.9844 191.401 43.1406 192.609 39.6042 194.49C37.599 195.464 36.7761 198.568 38.6094 200.078C41.4948 202.677 44.8438 204.719 47.974 207.016C50.3698 209.052 54.0156 209.5 56.7656 207.906C59.8281 206.172 62.6719 204.063 65.5156 201.979C60.8646 200.745 56.125 199.922 51.4375 198.875C56.3125 198.526 61.1927 199.172 66.0781 198.932Z" fill="url(#paint13_linear_20_37)"/>
<path d="M260.922 174.667C268.542 181.807 277.036 187.984 285.437 194.177C284.818 179.932 282.948 165.797 281.755 151.599C287.057 165.094 289.552 179.469 294.557 193.068C299.474 185.219 304.411 177.401 308.88 169.302C313.771 160.714 313.714 148.849 306.792 141.307C298.958 132.391 292.13 122.578 283.693 114.24C279.151 109.427 269.641 109.839 266.99 116.38C262.193 126.833 259.38 138.115 255.661 149.005C252.01 157.594 253.974 168.307 260.922 174.667Z" fill="url(#paint14_linear_20_37)"/>
<path d="M383.651 182.542C395.328 172.797 406.109 162.052 417.38 151.854C409.365 165.083 398.786 176.51 390.49 189.563C400.333 188.646 410.167 187.776 419.927 186.318C430.375 184.906 440.406 177.177 442.318 166.422C444.807 154.005 448.708 141.859 450.318 129.302C451.458 122.339 444.953 114.536 437.687 116.521C425.714 119.224 414.328 124.146 402.682 128.042C393.031 130.505 385.219 139.104 384.323 149.12C383.198 160.203 383.458 171.406 383.651 182.542Z" fill="url(#paint15_linear_20_37)"/>
<path d="M411.635 270.979C422 266.839 430.302 256.318 429.495 244.786C428.849 231.401 429.719 217.927 428.135 204.63C427.516 197.182 418.823 190.854 411.88 194.76C400.286 200.62 389.865 208.604 378.917 215.604C369.646 220.625 363.844 231.464 365.505 241.974C367.208 253.641 370.365 265.073 373.432 276.453C382.906 263.438 391.198 249.635 400.141 236.26C395.323 251.906 387.406 266.359 382.26 281.896C392.125 278.422 401.995 274.99 411.635 270.979Z" fill="url(#paint16_linear_20_37)"/>
<path d="M485.385 287.141C477.234 277.109 462.859 272.573 450.568 276.953C436.891 281.651 423.828 288.042 410.802 294.318C428.641 302.792 447.151 309.656 465.302 317.401C445.349 315.146 426.141 308.88 406.25 306.193C412.672 317.297 419.042 328.411 426.057 339.13C433.401 350.677 447.958 358.302 461.677 354.714C477.661 350.901 494.099 348.906 509.771 343.979C518.599 341.547 524.26 329.63 517.979 322.151C508.286 309.505 496.302 298.755 485.385 287.141Z" fill="url(#paint17_linear_20_37)"/>
<path d="M374.385 143.823C373.38 135.776 372.245 127.729 371.714 119.656C374.812 127.198 377.141 135.005 380 142.656C383.63 135.714 389.682 128.161 390.323 120.198C390.625 116.406 389.281 112.687 386.948 109.682C381.995 103.292 376.271 97.4479 370.391 91.9167C367.427 88.8958 361.578 89.4531 359.99 93.6354C356.922 101.484 354.599 109.693 353.031 117.99C352.63 120.12 352.609 122.339 353.203 124.422C355.859 133.76 367.141 138.198 374.385 143.823Z" fill="url(#paint18_linear_20_37)"/>
<path d="M533.906 283.693C530.073 277.792 525.635 272.208 520.771 267.099C519.521 265.792 518.026 264.698 516.323 264.083C508.693 261.333 500.182 266.823 492.833 269C498.786 272.24 504.797 275.391 510.536 278.969C503.906 277.391 497.474 275.167 490.891 273.375C493.828 279.224 496.005 287.01 501.094 291.328C503.521 293.38 506.698 294.281 509.875 294.167C516.63 293.922 523.38 292.885 530.005 291.594C533.495 291.052 535.969 286.813 533.906 283.693Z" fill="url(#paint19_linear_20_37)"/>
<path d="M426.563 351.583C427.948 358.219 429.443 364.839 430.438 371.526C427.344 365.458 424.87 359.115 421.969 352.938C419.417 358.969 414.896 365.667 414.906 372.344C414.911 375.521 416.281 378.526 418.427 380.87C422.99 385.854 428.151 390.328 433.427 394.536C436.104 396.844 440.938 395.984 441.974 392.396C443.99 385.646 445.365 378.656 446.104 371.635C446.297 369.839 446.161 367.99 445.526 366.292C442.677 358.698 432.979 355.771 426.563 351.583Z" fill="url(#paint20_linear_20_37)"/>
<path d="M96.2084 250.276C106.016 254.479 114.833 260.604 124.542 265.016C122.974 258.38 121.432 251.75 119.5 245.224C117.531 238.224 111.292 232.115 103.76 231.844C95.0417 231.339 86.3698 229.839 77.6406 229.948C72.7761 229.839 68.0729 235.031 70.125 239.802C73.1198 247.719 77.5781 255.021 81.3542 262.604C83.9688 268.953 90.5886 273.464 97.5156 273.115C105.193 272.818 112.818 271.563 120.411 270.359C112.63 263.323 104.255 256.995 96.2084 250.276Z" fill="url(#paint21_linear_20_37)"/>
<path d="M90.8698 302.885C87.8437 302.339 84.8177 301.781 81.7708 301.406C78.5208 300.958 74.8698 302.443 73.401 305.51C71.6198 309.026 69.4427 312.344 67.9114 315.974C66.9896 317.969 68.2917 320.849 70.6354 320.859C74.4531 321.047 78.276 320.516 82.0937 320.318C85.1927 320.38 88.25 318.453 89.3542 315.526C90.6146 312.297 91.4635 308.911 92.3385 305.557C88.0208 307.51 83.8958 309.833 79.6667 311.953C83.1719 308.651 87.2969 306.109 90.8698 302.885Z" fill="url(#paint22_linear_20_37)"/>
<path d="M158.172 327.214C172.302 322.224 187.25 320.161 201.479 315.479C193.547 310.115 185.646 304.729 177.432 299.823C168.74 294.464 156.474 294.094 148.438 300.979C138.943 308.755 128.563 315.458 119.641 323.875C114.51 328.391 114.594 338.234 121.25 341.208C131.88 346.542 143.438 349.849 154.557 354.083C163.302 358.167 174.438 356.521 181.26 349.568C188.911 341.953 195.599 333.401 202.297 324.938C187.557 325.068 172.885 326.495 158.172 327.214Z" fill="url(#paint23_linear_20_37)"/>
<path d="M196.651 303.958C209.484 308.24 222.823 310.911 236.073 313.646C227.625 297.219 217.766 281.594 208.677 265.531C222.224 278.542 232.943 294.115 246.203 307.406C247.734 295.505 249.318 283.625 250.187 271.677C251.292 258.922 244.802 244.984 232.568 239.859C218.521 233.609 205.172 225.76 190.724 220.516C182.781 217.313 171.807 222.948 172.229 232.078C172.245 246.979 175.047 261.776 176.562 276.609C176.917 288.698 185.026 300.24 196.651 303.958Z" fill="url(#paint24_linear_20_37)"/>
<path d="M285.021 226.37C277.63 227.286 270.479 232.667 269.042 240.25C267.187 249 264.333 257.547 263.099 266.401C262.234 271.313 266.771 276.88 271.917 275.536C280.396 273.724 288.479 270.339 296.74 267.677C303.573 266.016 309.161 260 309.875 252.938C310.755 245.115 310.661 237.198 310.62 229.328C302.292 236.12 294.589 243.625 286.547 250.74C292.312 241.458 299.88 233.474 305.844 224.318C298.88 224.885 291.927 225.422 285.021 226.37Z" fill="url(#paint25_linear_20_37)"/>
<defs>
<linearGradient id="paint0_linear_20_37" x1="303.5" y1="0" x2="303.5" y2="607" gradientUnits="userSpaceOnUse">
<stop stop-color="#B5C8DF"/>
<stop offset="1" stop-color="#626C79"/>
</linearGradient>
<linearGradient id="paint1_linear_20_37" x1="151" y1="497" x2="486" y2="497" gradientUnits="userSpaceOnUse">
<stop stop-color="#737373"/>
<stop offset="1" stop-color="#D9D9D9"/>
</linearGradient>
<linearGradient id="paint2_linear_20_37" x1="309.075" y1="82.9155" x2="309.075" y2="124.229" gradientUnits="userSpaceOnUse">
<stop stop-color="#737373"/>
<stop offset="1" stop-color="#D9D9D9"/>
</linearGradient>
<linearGradient id="paint3_linear_20_37" x1="476.499" y1="184.893" x2="476.499" y2="269.858" gradientUnits="userSpaceOnUse">
<stop stop-color="#737373"/>
<stop offset="1" stop-color="#D9D9D9"/>
</linearGradient>
<linearGradient id="paint4_linear_20_37" x1="387.724" y1="300.958" x2="387.724" y2="384.91" gradientUnits="userSpaceOnUse">
<stop stop-color="#737373"/>
<stop offset="1" stop-color="#D9D9D9"/>
</linearGradient>
<linearGradient id="paint5_linear_20_37" x1="215.455" y1="329.089" x2="215.455" y2="403.57" gradientUnits="userSpaceOnUse">
<stop stop-color="#737373"/>
<stop offset="1" stop-color="#D9D9D9"/>
</linearGradient>
<linearGradient id="paint6_linear_20_37" x1="345.231" y1="129.067" x2="345.231" y2="192.021" gradientUnits="userSpaceOnUse">
<stop stop-color="#737373"/>
<stop offset="1" stop-color="#D9D9D9"/>
</linearGradient>
<linearGradient id="paint7_linear_20_37" x1="245.112" y1="191.152" x2="245.112" y2="237.54" gradientUnits="userSpaceOnUse">
<stop stop-color="#737373"/>
<stop offset="1" stop-color="#D9D9D9"/>
</linearGradient>
<linearGradient id="paint8_linear_20_37" x1="315.063" y1="191.755" x2="315.063" y2="455.042" gradientUnits="userSpaceOnUse">
<stop stop-color="#737373"/>
<stop offset="1" stop-color="#D9D9D9"/>
</linearGradient>
<linearGradient id="paint9_linear_20_37" x1="215.074" y1="119.147" x2="215.074" y2="172.917" gradientUnits="userSpaceOnUse">
<stop stop-color="#737373"/>
<stop offset="1" stop-color="#D9D9D9"/>
</linearGradient>
<linearGradient id="paint10_linear_20_37" x1="135.676" y1="108.81" x2="135.676" y2="135.971" gradientUnits="userSpaceOnUse">
<stop stop-color="#737373"/>
<stop offset="1" stop-color="#D9D9D9"/>
</linearGradient>
<linearGradient id="paint11_linear_20_37" x1="109.289" y1="155.532" x2="109.289" y2="182.979" gradientUnits="userSpaceOnUse">
<stop stop-color="#737373"/>
<stop offset="1" stop-color="#D9D9D9"/>
</linearGradient>
<linearGradient id="paint12_linear_20_37" x1="151.587" y1="175.411" x2="151.587" y2="213.514" gradientUnits="userSpaceOnUse">
<stop stop-color="#737373"/>
<stop offset="1" stop-color="#D9D9D9"/>
</linearGradient>
<linearGradient id="paint13_linear_20_37" x1="51.8335" y1="189.132" x2="51.8335" y2="208.868" gradientUnits="userSpaceOnUse">
<stop stop-color="#737373"/>
<stop offset="1" stop-color="#D9D9D9"/>
</linearGradient>
<linearGradient id="paint14_linear_20_37" x1="283.08" y1="110.998" x2="283.08" y2="194.177" gradientUnits="userSpaceOnUse">
<stop stop-color="#737373"/>
<stop offset="1" stop-color="#D9D9D9"/>
</linearGradient>
<linearGradient id="paint15_linear_20_37" x1="416.964" y1="116.207" x2="416.964" y2="189.563" gradientUnits="userSpaceOnUse">
<stop stop-color="#737373"/>
<stop offset="1" stop-color="#D9D9D9"/>
</linearGradient>
<linearGradient id="paint16_linear_20_37" x1="397.386" y1="193.569" x2="397.386" y2="281.896" gradientUnits="userSpaceOnUse">
<stop stop-color="#737373"/>
<stop offset="1" stop-color="#D9D9D9"/>
</linearGradient>
<linearGradient id="paint17_linear_20_37" x1="463.448" y1="275.285" x2="463.448" y2="355.607" gradientUnits="userSpaceOnUse">
<stop stop-color="#737373"/>
<stop offset="1" stop-color="#D9D9D9"/>
</linearGradient>
<linearGradient id="paint18_linear_20_37" x1="371.553" y1="90.0074" x2="371.553" y2="143.823" gradientUnits="userSpaceOnUse">
<stop stop-color="#737373"/>
<stop offset="1" stop-color="#D9D9D9"/>
</linearGradient>
<linearGradient id="paint19_linear_20_37" x1="512.774" y1="263.329" x2="512.774" y2="294.176" gradientUnits="userSpaceOnUse">
<stop stop-color="#737373"/>
<stop offset="1" stop-color="#D9D9D9"/>
</linearGradient>
<linearGradient id="paint20_linear_20_37" x1="430.546" y1="351.583" x2="430.546" y2="395.819" gradientUnits="userSpaceOnUse">
<stop stop-color="#737373"/>
<stop offset="1" stop-color="#D9D9D9"/>
</linearGradient>
<linearGradient id="paint21_linear_20_37" x1="97.0865" y1="229.942" x2="97.0865" y2="273.134" gradientUnits="userSpaceOnUse">
<stop stop-color="#737373"/>
<stop offset="1" stop-color="#D9D9D9"/>
</linearGradient>
<linearGradient id="paint22_linear_20_37" x1="79.9759" y1="301.328" x2="79.9759" y2="320.899" gradientUnits="userSpaceOnUse">
<stop stop-color="#737373"/>
<stop offset="1" stop-color="#D9D9D9"/>
</linearGradient>
<linearGradient id="paint23_linear_20_37" x1="159.15" y1="295.805" x2="159.15" y2="356.286" gradientUnits="userSpaceOnUse">
<stop stop-color="#737373"/>
<stop offset="1" stop-color="#D9D9D9"/>
</linearGradient>
<linearGradient id="paint24_linear_20_37" x1="211.263" y1="219.61" x2="211.263" y2="313.646" gradientUnits="userSpaceOnUse">
<stop stop-color="#737373"/>
<stop offset="1" stop-color="#D9D9D9"/>
</linearGradient>
<linearGradient id="paint25_linear_20_37" x1="286.819" y1="224.318" x2="286.819" y2="275.74" gradientUnits="userSpaceOnUse">
<stop stop-color="#737373"/>
<stop offset="1" stop-color="#D9D9D9"/>
</linearGradient>
</defs>
</svg>
