<svg width="607" height="607" viewBox="0 0 607 607" fill="none" xmlns="http://www.w3.org/2000/svg">
<rect width="607" height="607" fill="black"/>
<rect x="0.5" y="0.5" width="606" height="606" fill="url(#paint0_linear_20_37)" fill-opacity="0.21" stroke="#626C79"/>
<path d="M199.369 463.193C199.454 464.463 199.285 466.367 198.861 468.906C198.523 471.445 197.93 473.984 197.084 476.523C196.238 479.062 195.137 481.305 193.783 483.252C192.514 485.114 191.033 486.045 189.34 486.045C188.493 486.045 187.774 485.537 187.182 484.521C186.589 483.506 186.081 482.194 185.658 480.586C185.235 478.978 184.896 477.201 184.643 475.254C184.389 473.223 184.135 471.276 183.881 469.414C183.712 467.552 183.542 465.859 183.373 464.336C183.288 462.728 183.204 461.543 183.119 460.781C182.781 460.273 182.146 459.766 181.215 459.258C180.368 458.665 179.607 458.369 178.93 458.369C178.168 458.369 177.237 459.089 176.137 460.527C175.121 461.966 174.148 463.659 173.217 465.605C172.286 467.552 171.524 469.499 170.932 471.445C170.339 473.307 170.085 474.746 170.17 475.762C170.17 476.439 170.805 477.624 172.074 479.316C173.428 481.009 175.079 482.998 177.025 485.283C178.972 487.568 181.088 490.065 183.373 492.773C185.658 495.397 187.774 498.021 189.721 500.645C191.667 503.268 193.318 505.765 194.672 508.135C196.026 510.505 196.745 512.536 196.83 514.229C196.999 516.26 196.534 518.883 195.434 522.1C194.418 525.231 193.106 528.278 191.498 531.24C189.89 534.202 188.155 536.784 186.293 538.984C184.516 541.1 182.908 542.201 181.469 542.285C180.538 542.37 179.311 541.947 177.787 541.016C176.264 540.169 174.613 539.027 172.836 537.588C171.059 536.149 169.239 534.583 167.377 532.891C165.6 531.113 163.907 529.378 162.299 527.686C160.775 525.993 159.464 524.469 158.363 523.115C157.348 521.676 156.755 520.618 156.586 519.941C156.247 518.926 156.036 517.572 155.951 515.879C155.951 514.102 156.036 512.409 156.205 510.801C156.459 509.108 156.755 507.669 157.094 506.484C157.517 505.215 158.025 504.58 158.617 504.58C159.04 504.58 159.717 505.13 160.648 506.23C161.664 507.331 162.807 508.727 164.076 510.42C165.346 512.113 166.7 513.975 168.139 516.006C169.662 517.952 171.101 519.772 172.455 521.465C173.809 523.158 175.036 524.596 176.137 525.781C177.237 526.882 178.126 527.389 178.803 527.305C179.311 527.305 179.861 526.924 180.453 526.162C181.046 525.316 181.596 524.342 182.104 523.242C182.611 522.057 183.035 520.872 183.373 519.688C183.712 518.503 183.881 517.572 183.881 516.895C183.796 515.879 182.95 514.44 181.342 512.578C179.818 510.632 177.872 508.473 175.502 506.104C173.217 503.649 170.72 501.11 168.012 498.486C165.388 495.863 162.891 493.366 160.521 490.996C158.236 488.542 156.29 486.341 154.682 484.395C153.158 482.448 152.354 480.967 152.27 479.951C152.185 478.936 152.481 477.37 153.158 475.254C153.835 473.053 154.724 470.599 155.824 467.891C157.009 465.182 158.321 462.432 159.76 459.639C161.199 456.846 162.68 454.264 164.203 451.895C165.727 449.525 167.208 447.62 168.646 446.182C170.085 444.658 171.355 443.896 172.455 443.896C173.894 443.896 175.544 444.235 177.406 444.912C179.268 445.505 181.173 446.351 183.119 447.451C185.15 448.467 187.097 449.652 188.959 451.006C190.906 452.36 192.641 453.757 194.164 455.195C195.688 456.549 196.915 457.946 197.846 459.385C198.777 460.739 199.285 462.008 199.369 463.193ZM232.377 470.557C232.969 471.064 233.52 472.038 234.027 473.477C234.62 474.915 235.128 476.65 235.551 478.682C235.974 480.713 236.355 482.913 236.693 485.283C237.032 487.653 237.328 489.98 237.582 492.266C237.836 494.551 238.005 496.709 238.09 498.74C238.259 500.687 238.386 502.295 238.471 503.564C238.555 505.088 238.598 506.696 238.598 508.389C238.682 509.997 238.682 511.562 238.598 513.086C238.598 514.525 238.513 515.837 238.344 517.021C238.259 518.206 238.09 519.095 237.836 519.688C237.328 520.957 236.439 521.846 235.17 522.354C233.985 522.777 232.631 523.073 231.107 523.242C230.346 523.327 229.034 523.369 227.172 523.369C225.395 523.285 223.448 523.2 221.332 523.115C219.301 522.946 217.354 522.777 215.492 522.607C213.63 522.438 212.234 522.269 211.303 522.1C209.441 521.676 208.087 521.126 207.24 520.449C206.479 519.772 205.717 518.799 204.955 517.529C204.701 517.021 204.49 515.752 204.32 513.721C204.151 511.605 204.024 509.108 203.939 506.23C203.939 503.268 203.982 500.094 204.066 496.709C204.151 493.324 204.278 490.107 204.447 487.061C204.701 484.014 204.955 481.348 205.209 479.062C205.548 476.777 205.971 475.254 206.479 474.492C207.325 473.307 208.764 472.207 210.795 471.191C212.911 470.176 214.815 469.372 216.508 468.779C217.354 468.525 218.454 468.356 219.809 468.271C221.247 468.102 222.729 468.102 224.252 468.271C225.86 468.356 227.383 468.61 228.822 469.033C230.261 469.372 231.446 469.88 232.377 470.557ZM225.268 509.912C225.437 509.574 225.606 508.558 225.775 506.865C226.029 505.088 226.199 502.972 226.283 500.518C226.452 498.063 226.537 495.439 226.537 492.646C226.622 489.854 226.664 487.272 226.664 484.902C226.664 482.533 226.579 480.544 226.41 478.936C226.241 477.243 226.029 476.27 225.775 476.016C225.352 475.677 224.717 475.55 223.871 475.635C223.109 475.635 222.305 475.762 221.459 476.016C220.613 476.185 219.851 476.439 219.174 476.777C218.497 477.031 218.031 477.285 217.777 477.539C216.677 478.47 216.085 479.993 216 482.109C216 482.702 215.915 484.395 215.746 487.188C215.661 489.896 215.619 492.858 215.619 496.074C215.619 499.206 215.661 502.126 215.746 504.834C215.915 507.542 216.212 509.193 216.635 509.785C217.058 510.378 217.65 510.843 218.412 511.182C219.258 511.436 220.105 511.562 220.951 511.562C221.882 511.562 222.729 511.436 223.49 511.182C224.337 510.843 224.929 510.42 225.268 509.912ZM296.742 464.844C298.35 466.198 299.535 468.906 300.297 472.969C301.059 476.947 301.355 481.39 301.186 486.299C301.101 487.822 300.889 489.938 300.551 492.646C300.212 495.27 299.789 498.19 299.281 501.406C298.858 504.538 298.35 507.754 297.758 511.055C297.25 514.355 296.742 517.402 296.234 520.195C295.727 522.988 295.261 525.358 294.838 527.305C294.499 529.167 294.288 530.267 294.203 530.605C294.034 531.198 293.568 531.79 292.807 532.383C292.045 532.975 291.241 533.483 290.395 533.906C289.633 534.245 288.871 534.499 288.109 534.668C287.348 534.753 286.882 534.583 286.713 534.16C286.628 533.906 286.628 532.594 286.713 530.225C286.798 527.855 286.924 524.935 287.094 521.465C287.263 517.91 287.432 514.144 287.602 510.166C287.855 506.104 288.067 502.295 288.236 498.74C288.406 495.186 288.575 492.181 288.744 489.727C288.913 487.188 288.998 485.664 288.998 485.156C289.083 482.533 288.871 480.247 288.363 478.301C287.855 476.27 287.009 475.254 285.824 475.254C285.401 475.254 284.893 475.465 284.301 475.889C283.708 476.227 283.116 476.65 282.523 477.158C282.016 477.666 281.508 478.216 281 478.809C280.577 479.401 280.365 479.951 280.365 480.459C280.281 481.982 280.154 484.225 279.984 487.188C279.9 490.15 279.773 493.408 279.604 496.963C279.519 500.518 279.392 504.157 279.223 507.881C279.138 511.605 279.011 515.033 278.842 518.164C278.757 521.296 278.673 523.919 278.588 526.035C278.503 528.066 278.419 529.209 278.334 529.463C278.165 529.801 277.615 530.055 276.684 530.225C275.837 530.309 274.864 530.309 273.764 530.225C272.663 530.14 271.648 529.928 270.717 529.59C269.87 529.251 269.363 528.786 269.193 528.193C269.024 527.77 268.897 526.501 268.812 524.385C268.728 522.184 268.601 519.561 268.432 516.514C268.347 513.467 268.262 510.208 268.178 506.738C268.093 503.184 268.008 499.883 267.924 496.836C267.839 493.789 267.755 491.165 267.67 488.965C267.67 486.764 267.67 485.41 267.67 484.902C267.67 482.871 267.501 481.263 267.162 480.078C266.824 478.809 266.4 477.835 265.893 477.158C265.469 476.396 264.962 475.931 264.369 475.762C263.777 475.508 263.184 475.381 262.592 475.381C262.338 475.381 261.957 475.592 261.449 476.016C260.941 476.354 260.434 476.904 259.926 477.666C259.418 478.343 258.995 479.147 258.656 480.078C258.318 480.924 258.191 481.855 258.275 482.871C258.275 483.294 258.318 484.86 258.402 487.568C258.487 490.277 258.529 493.535 258.529 497.344C258.614 501.152 258.699 505.257 258.783 509.658C258.868 514.059 258.91 518.164 258.91 521.973C258.995 525.697 259.037 528.87 259.037 531.494C259.037 534.033 259.037 535.387 259.037 535.557C258.868 535.98 258.402 536.234 257.641 536.318C256.879 536.318 256.033 536.149 255.102 535.811C254.171 535.472 253.282 535.007 252.436 534.414C251.589 533.737 250.997 532.933 250.658 532.002C250.489 531.325 250.235 529.844 249.896 527.559C249.558 525.273 249.177 522.565 248.754 519.434C248.331 516.217 247.908 512.79 247.484 509.15C247.061 505.426 246.638 501.872 246.215 498.486C245.792 495.016 245.411 491.885 245.072 489.092C244.818 486.299 244.607 484.183 244.438 482.744C244.184 480.713 243.887 478.512 243.549 476.143C243.295 473.688 243.041 471.361 242.787 469.16C242.618 466.875 242.491 464.928 242.406 463.32C242.322 461.628 242.406 460.57 242.66 460.146C242.829 459.808 243.422 459.681 244.438 459.766C245.538 459.85 246.68 460.104 247.865 460.527C249.135 460.866 250.32 461.374 251.42 462.051C252.605 462.643 253.367 463.278 253.705 463.955C253.959 464.463 254.213 465.098 254.467 465.859C254.805 466.536 255.144 467.637 255.482 469.16C256.921 468.06 258.402 467.044 259.926 466.113C261.449 465.098 262.973 464.336 264.496 463.828C266.02 463.236 267.458 462.939 268.812 462.939C270.251 462.855 271.605 463.236 272.875 464.082C273.975 464.928 275.033 466.41 276.049 468.525C280.111 466.24 284.005 464.674 287.729 463.828C291.537 462.897 294.542 463.236 296.742 464.844ZM310.326 458.242C310.749 457.48 311.638 456.507 312.992 455.322C314.346 454.053 315.954 452.783 317.816 451.514C319.763 450.244 321.837 449.102 324.037 448.086C326.238 446.986 328.438 446.266 330.639 445.928C332.924 445.505 335.04 445.589 336.986 446.182C339.018 446.689 340.753 447.874 342.191 449.736C342.953 450.667 343.673 452.529 344.35 455.322C345.027 458.115 345.661 461.501 346.254 465.479C346.931 469.372 347.523 473.73 348.031 478.555C348.539 483.294 348.962 488.161 349.301 493.154C349.639 498.063 349.851 502.93 349.936 507.754C350.105 512.493 350.105 516.895 349.936 520.957C349.851 524.935 349.597 528.363 349.174 531.24C348.835 534.033 348.285 535.98 347.523 537.08C346 539.281 343.63 540.762 340.414 541.523C337.198 542.285 333.812 542.285 330.258 541.523C326.703 540.846 323.318 539.408 320.102 537.207C316.885 535.007 314.516 532.044 312.992 528.32C311.977 525.866 311.13 522.523 310.453 518.291C309.861 514.059 309.395 509.489 309.057 504.58C308.718 499.587 308.507 494.508 308.422 489.346C308.422 484.183 308.464 479.443 308.549 475.127C308.718 470.726 308.93 467.002 309.184 463.955C309.522 460.908 309.903 459.004 310.326 458.242ZM335.209 522.607C335.717 522.1 336.055 520.745 336.225 518.545C336.479 516.26 336.605 513.594 336.605 510.547C336.69 507.415 336.69 504.115 336.605 500.645C336.605 497.174 336.605 493.958 336.605 490.996C336.605 483.464 336.352 477.624 335.844 473.477C335.336 469.329 334.743 466.24 334.066 464.209C333.305 461.839 332.458 460.358 331.527 459.766C330.258 460.02 329.2 460.443 328.354 461.035C327.507 461.543 326.83 462.135 326.322 462.812C325.73 463.574 325.264 464.378 324.926 465.225C324.672 465.986 324.376 467.467 324.037 469.668C323.783 471.868 323.529 474.492 323.275 477.539C323.021 480.501 322.768 483.76 322.514 487.314C322.344 490.785 322.175 494.212 322.006 497.598C321.921 500.983 321.837 504.199 321.752 507.246C321.752 510.208 321.794 512.663 321.879 514.609C322.048 517.572 322.725 519.73 323.91 521.084C325.18 522.438 326.534 523.327 327.973 523.75C329.411 524.089 330.808 524.089 332.162 523.75C333.601 523.411 334.617 523.031 335.209 522.607ZM388.656 462.432C389.503 462.939 390.307 463.87 391.068 465.225C391.915 466.494 392.676 468.018 393.354 469.795C394.031 471.488 394.581 473.35 395.004 475.381C395.427 477.327 395.639 479.189 395.639 480.967C395.639 482.829 395.3 485.41 394.623 488.711C394.031 491.927 393.311 495.186 392.465 498.486C391.618 501.787 390.814 504.749 390.053 507.373C389.291 509.997 388.783 511.562 388.529 512.07C388.021 514.017 387.344 515.413 386.498 516.26C385.652 516.937 384.509 517.445 383.07 517.783C381.716 518.037 380.32 518.206 378.881 518.291C377.442 518.376 376.046 518.376 374.691 518.291C373.337 518.122 372.279 517.91 371.518 517.656C371.433 517.656 371.137 517.572 370.629 517.402C370.629 520.788 370.587 524.258 370.502 527.812C370.417 530.859 370.333 534.287 370.248 538.096C370.163 541.82 370.079 545.586 369.994 549.395C369.825 550.156 369.486 551.045 368.979 552.061C368.555 553.076 368.005 554.007 367.328 554.854C366.651 555.785 365.932 556.546 365.17 557.139C364.493 557.731 363.858 557.943 363.266 557.773C362.927 557.689 362.546 556.208 362.123 553.33C361.785 550.537 361.404 546.813 360.98 542.158C360.642 537.588 360.261 532.34 359.838 526.416C359.415 520.492 359.034 514.44 358.695 508.262C358.357 502.083 358.061 496.032 357.807 490.107C357.637 484.098 357.468 478.766 357.299 474.111C357.214 469.372 357.214 465.521 357.299 462.559C357.383 459.512 357.595 457.861 357.934 457.607C358.188 457.354 358.695 457.396 359.457 457.734C360.219 457.988 361.065 458.496 361.996 459.258C363.012 459.935 364.027 460.824 365.043 461.924C366.143 462.939 367.117 464.082 367.963 465.352C372.11 463.49 376.046 462.178 379.77 461.416C383.493 460.654 386.456 460.993 388.656 462.432ZM383.324 481.094C383.324 479.74 383.113 478.428 382.689 477.158C382.351 475.804 381.885 474.661 381.293 473.73C380.701 472.715 380.066 471.953 379.389 471.445C378.796 470.853 378.246 470.641 377.738 470.811C375.622 471.318 373.845 471.911 372.406 472.588C371.645 472.926 371.01 473.307 370.502 473.73C370.671 476.439 370.756 480.163 370.756 484.902C370.84 489.557 370.883 494.678 370.883 500.264C370.883 502.718 370.967 504.368 371.137 505.215C371.221 507.246 371.729 508.643 372.66 509.404C372.914 509.658 373.295 509.954 373.803 510.293C374.311 510.547 374.861 510.801 375.453 511.055C376.046 511.224 376.638 511.351 377.23 511.436C377.823 511.436 378.331 511.266 378.754 510.928C378.839 510.843 379.008 510.081 379.262 508.643C379.6 507.119 379.939 505.299 380.277 503.184C380.616 500.983 380.954 498.656 381.293 496.201C381.716 493.662 382.055 491.335 382.309 489.219C382.647 487.018 382.901 485.156 383.07 483.633C383.24 482.109 383.324 481.263 383.324 481.094ZM410.746 503.311C412.1 502.803 413.624 502.253 415.316 501.66C417.094 500.983 418.786 500.391 420.395 499.883C422.003 499.29 423.441 498.783 424.711 498.359C425.98 497.936 426.911 497.598 427.504 497.344C427.419 496.413 427.292 495.355 427.123 494.17C427.038 492.9 426.911 491.715 426.742 490.615C426.573 489.43 426.361 488.415 426.107 487.568C425.854 486.722 425.6 486.214 425.346 486.045C424.669 485.791 423.526 485.579 421.918 485.41C420.395 485.156 418.786 485.199 417.094 485.537C415.486 485.876 414.005 486.51 412.65 487.441C411.296 488.372 410.535 489.854 410.365 491.885C410.196 493.239 410.154 494.932 410.238 496.963C410.323 498.994 410.492 501.11 410.746 503.311ZM438.295 505.342C438.21 505.511 437.195 505.85 435.248 506.357C433.301 506.865 430.974 507.415 428.266 508.008C425.557 508.516 422.68 509.066 419.633 509.658C416.586 510.166 413.962 510.589 411.762 510.928C412.185 514.313 412.693 517.36 413.285 520.068C413.878 522.692 414.385 524.342 414.809 525.02C415.232 525.612 415.782 526.162 416.459 526.67C417.051 527.093 417.771 527.516 418.617 527.939C419.548 528.278 420.648 528.532 421.918 528.701C422.849 528.955 423.738 528.617 424.584 527.686C425.261 526.839 425.854 525.358 426.361 523.242C426.954 521.126 427.25 517.783 427.25 513.213C429.874 512.79 431.905 512.536 433.344 512.451C434.867 512.367 435.967 512.367 436.645 512.451C437.491 512.536 437.999 512.663 438.168 512.832C438.253 513.086 438.253 513.721 438.168 514.736C438.083 515.752 437.872 517.021 437.533 518.545C437.279 519.984 436.941 521.592 436.518 523.369C436.179 525.062 435.756 526.712 435.248 528.32C434.74 529.844 434.19 531.24 433.598 532.51C433.005 533.695 432.37 534.541 431.693 535.049C429.662 536.572 427.123 537.334 424.076 537.334C421.029 537.249 418.025 536.826 415.062 536.064C412.1 535.218 409.434 534.245 407.064 533.145C404.695 531.96 403.214 530.986 402.621 530.225C402.198 529.717 401.817 528.447 401.479 526.416C401.14 524.3 400.844 521.761 400.59 518.799C400.421 515.837 400.294 512.578 400.209 509.023C400.124 505.469 400.167 501.999 400.336 498.613C400.59 495.228 400.928 492.096 401.352 489.219C401.859 486.341 402.536 484.014 403.383 482.236C404.652 479.697 406.726 477.624 409.604 476.016C412.481 474.408 415.528 473.307 418.744 472.715C421.96 472.122 425.007 472.038 427.885 472.461C430.847 472.884 433.048 473.815 434.486 475.254C435.333 476.1 436.094 477.793 436.771 480.332C437.449 482.786 437.872 485.791 438.041 489.346C438.041 489.684 438.083 490.658 438.168 492.266C438.253 493.874 438.295 495.609 438.295 497.471C438.38 499.248 438.422 500.941 438.422 502.549C438.422 504.157 438.38 505.088 438.295 505.342ZM482.602 486.807C482.602 488.161 482.432 490.107 482.094 492.646C481.84 495.186 481.459 497.979 480.951 501.025C480.443 503.988 479.893 507.077 479.301 510.293C478.793 513.424 478.243 516.302 477.65 518.926C477.143 521.549 476.677 523.75 476.254 525.527C475.915 527.305 475.704 528.278 475.619 528.447C475.45 528.701 474.984 528.87 474.223 528.955C473.546 528.955 472.742 528.87 471.811 528.701C470.964 528.532 470.16 528.278 469.398 527.939C468.721 527.601 468.298 527.178 468.129 526.67C468.044 526.331 468.002 525.146 468.002 523.115C468.087 521.084 468.171 518.672 468.256 515.879C468.425 513.001 468.594 509.954 468.764 506.738C468.933 503.438 469.102 500.391 469.271 497.598C469.525 494.72 469.695 492.266 469.779 490.234C469.949 488.203 470.033 486.976 470.033 486.553C470.033 485.029 469.864 483.59 469.525 482.236C469.271 480.798 468.933 479.57 468.51 478.555C468.087 477.539 467.579 476.777 466.986 476.27C466.479 475.677 466.013 475.465 465.59 475.635C464.49 475.804 463.559 476.1 462.797 476.523C462.035 476.862 461.4 477.243 460.893 477.666C460.3 478.174 459.835 478.766 459.496 479.443C459.411 479.613 459.242 480.12 458.988 480.967C458.819 481.813 458.734 482.786 458.734 483.887C458.734 484.225 458.734 485.452 458.734 487.568C458.734 489.6 458.692 492.054 458.607 494.932C458.607 497.809 458.565 500.941 458.48 504.326C458.48 507.627 458.438 510.716 458.354 513.594C458.354 516.387 458.311 518.799 458.227 520.83C458.142 522.861 458.057 524.004 457.973 524.258C457.803 524.766 457.38 525.485 456.703 526.416C456.026 527.262 455.264 528.066 454.418 528.828C453.572 529.59 452.768 530.182 452.006 530.605C451.244 530.944 450.736 530.859 450.482 530.352C450.229 530.098 449.975 528.87 449.721 526.67C449.467 524.385 449.171 521.634 448.832 518.418C448.578 515.117 448.282 511.562 447.943 507.754C447.605 503.861 447.309 500.137 447.055 496.582C446.801 493.027 446.589 489.811 446.42 486.934C446.251 484.056 446.124 481.982 446.039 480.713C445.954 478.936 445.87 476.947 445.785 474.746C445.701 472.461 445.616 470.345 445.531 468.398C445.531 466.367 445.531 464.632 445.531 463.193C445.616 461.67 445.785 460.739 446.039 460.4C446.208 460.062 446.758 459.977 447.689 460.146C448.705 460.316 449.763 460.654 450.863 461.162C452.048 461.585 453.148 462.135 454.164 462.812C455.18 463.405 455.857 463.997 456.195 464.59C456.365 465.098 456.576 465.69 456.83 466.367C457.084 466.96 457.296 467.975 457.465 469.414C458.904 468.568 460.469 467.806 462.162 467.129C463.855 466.367 465.505 465.817 467.113 465.479C468.806 465.055 470.414 464.928 471.938 465.098C473.461 465.182 474.815 465.605 476 466.367C476.762 466.96 477.523 467.975 478.285 469.414C479.132 470.853 479.851 472.546 480.443 474.492C481.12 476.439 481.628 478.512 481.967 480.713C482.39 482.829 482.602 484.86 482.602 486.807Z" fill="url(#paint1_linear_20_37)"/>
<mask id="mask0_20_37" style="mask-type:luminance" maskUnits="userSpaceOnUse" x="294" y="79" width="30" height="43">
<path d="M294.667 79.0156H324V121.333H294.667V79.0156Z" fill="white"/>
</mask>
<g mask="url(#mask0_20_37)">
<path d="M311.229 121.229C310.458 115.052 309.583 108.875 309.177 102.677C311.557 108.469 313.344 114.464 315.542 120.339C317.974 115.688 321.818 110.682 323.083 105.422C324.005 101.604 322.922 97.6198 320.495 94.5365C316.781 89.8177 312.531 85.4896 308.161 81.3802C305.885 79.0625 301.396 79.4896 300.177 82.7031C297.922 88.4896 296.182 94.526 294.984 100.635C294.255 104.339 295.161 108.245 297.609 111.115C301.172 115.281 307.068 118 311.229 121.229Z" fill="url(#paint2_linear_20_37)"/>
</g>
<path d="M436.979 223.099C436.37 234.807 435.599 246.49 435.333 258.214C451.286 246.104 466.099 232.531 481.401 219.604C469.188 235.682 455.693 250.719 443.583 266.833C455.615 267.078 467.604 265.448 479.594 264.62C491.422 263.823 502.557 255.146 505.604 243.604C509.302 230.354 512.859 217.068 516.495 203.818C518.063 197.62 518.833 189.755 513.63 185.021C508.734 180.651 501.563 181.604 495.807 183.411C483.005 187.396 470.162 191.276 457.359 195.26C445.495 198.859 437.161 210.849 436.979 223.099Z" fill="url(#paint3_linear_20_37)"/>
<path d="M367.073 315.464C359.818 321.255 356.531 331.807 359.729 340.589C363.266 350.76 366.911 360.891 370.49 371.036C372.255 375.719 375.266 381.12 380.729 381.844C385.828 382.464 390.016 378.646 392.901 374.917C399.354 366.641 405.88 358.412 412.333 350.13C418.359 342.521 418.365 331.089 413.01 323.13C408.172 315.333 403.453 307.474 398.385 299.818C393.536 314.729 390.073 330.073 386.005 345.214C386.682 329.422 388.641 313.729 389.234 297.958C381.391 303.177 374.406 309.573 367.073 315.464Z" fill="url(#paint4_linear_20_37)"/>
<path d="M246.589 361.51C245.979 351.776 245.432 342.042 244.453 332.328C233.198 342.51 223.828 354.578 213.078 365.286C220.458 351.839 229.437 339.318 237.182 326.089C227.286 326.984 217.672 329.526 207.958 331.411C196.906 333.63 189 344.234 188.714 355.313C187.411 366.792 184.609 378.13 184.286 389.734C183.818 397.115 192.292 402.682 198.995 399.792C210.542 395.448 221.615 389.896 232.911 384.938C241.875 381.099 247.24 371.078 246.589 361.51Z" fill="url(#paint5_linear_20_37)"/>
<path d="M319.115 137.932C320.031 147.729 321.292 157.505 322.588 167.255C323.562 175 330.005 181.5 337.484 183.354C345.635 185.609 353.927 187.495 362.255 189.021C356.12 177.906 349.516 167.052 343.437 155.917C352.156 165.286 360.021 175.448 368.698 184.875C370.182 174.573 372.172 164.068 371.281 153.661C369.062 141.917 356.667 138.219 347.323 133.688C340.167 130.74 333.359 124.969 325.151 126.25C320.193 127.63 318.385 133.302 319.115 137.932Z" fill="url(#paint6_linear_20_37)"/>
<path d="M215.521 205.359C210.417 208.63 210.703 217.594 216.13 220.38C220.698 223.203 225.698 225.234 230.432 227.734C238.542 232.427 248.193 237.286 257.521 232.693C265.286 227.474 271.443 220.219 278.354 213.917C266.646 212.901 254.901 212.536 243.198 211.641C254.635 209.161 266.401 208.938 277.943 207.068C272.802 201.318 266.708 196.5 260.49 191.969C254.37 186.828 244.922 187.115 238.437 191.422C230.859 196.156 222.896 200.323 215.521 205.359Z" fill="url(#paint7_linear_20_37)"/>
<mask id="mask1_20_37" style="mask-type:luminance" maskUnits="userSpaceOnUse" x="204" y="188" width="222" height="265">
<path d="M204 188H425.333V452.016H204V188Z" fill="white"/>
</mask>
<g mask="url(#mask1_20_37)">
<path d="M326.188 351.427C329.01 339.339 335.578 328.286 343.849 319.099C363.375 297.76 391.703 288.495 418.729 280.813C396.234 283.818 373.313 287.458 352.708 297.479C342.219 302.536 333.339 310.297 325.76 319.057C328.667 270.328 346.714 219.766 386.115 188.755C363.802 194.854 346.672 211.479 333.219 229.521C329.521 223.161 326.49 216.193 320.906 211.172C308.813 199.021 290.766 196.255 274.37 196.094C285.547 198.859 297.047 202.026 306.271 209.302C316.964 217.292 322.875 230.276 324.458 243.281C322.188 249.318 318.609 254.76 315.948 260.656C305.052 284.068 298.042 309.161 293.818 334.583C286.99 327.453 278.271 322.333 268.802 319.589C250.672 314.224 231.026 314.281 212.776 319.057C241.755 318.651 273.984 327.938 291.193 352.833C287.781 377.526 287.844 402.536 290.443 427.292C260.672 429.526 231.083 437.328 204.932 451.901C228.568 447.51 252.359 443.792 276.401 442.469C326.089 439.646 376.505 440.802 425.193 452.042C399.547 436.859 369.88 429.849 340.432 427.25C334.193 402.333 327.042 377.24 326.188 351.427Z" fill="url(#paint8_linear_20_37)"/>
</g>
<path d="M195.411 152.984C196.911 160.526 203.214 166.901 210.891 168.01C219.391 169.333 228.031 169.599 236.625 169.917C229.599 160.51 221.766 151.755 214.375 142.646C224.24 149.37 232.604 158 242.318 164.932C242.021 157.313 241.76 149.698 241.042 142.115C240.385 134.005 234.849 125.953 226.635 124.031C217.172 121.599 207.974 118.089 198.365 116.328C193.042 115.156 186.76 119.849 187.984 125.526C189.573 134.87 192.891 143.849 195.411 152.984Z" fill="url(#paint9_linear_20_37)"/>
<path d="M125.917 126.62C127.74 130.609 132.078 133.328 136.49 132.932C141.38 132.557 146.219 131.568 151.031 130.615C145.891 126.313 140.396 122.479 135.094 118.391C141.453 120.828 147.234 124.526 153.536 127.099C152.375 122.906 151.229 118.714 149.833 114.594C148.406 110.177 144.271 106.432 139.458 106.443C133.885 106.333 128.312 105.589 122.745 105.875C119.635 105.922 116.766 109.354 118.193 112.344C120.297 117.323 123.318 121.875 125.917 126.62Z" fill="url(#paint10_linear_20_37)"/>
<path d="M92.4583 174.344C97.4323 176.464 102.766 177.635 107.932 179.245C112.016 180.849 117.021 179.786 119.922 176.438C123.177 172.766 125.969 168.693 128.766 164.667C122.083 165.141 115.469 166.203 108.813 166.948C115.083 164.281 121.807 162.927 128.13 160.396C124.38 158.188 120.641 155.969 116.776 153.974C112.677 151.792 107.104 151.969 103.651 155.318C99.5625 159.115 95.0417 162.453 91.2344 166.526C89.0313 168.719 89.349 173.182 92.4583 174.344Z" fill="url(#paint11_linear_20_37)"/>
<path d="M128.214 202.693C135.12 205.635 142.531 207.266 149.698 209.495C155.37 211.719 162.318 210.25 166.344 205.599C170.865 200.5 174.74 194.849 178.63 189.255C169.349 189.917 160.161 191.396 150.922 192.427C159.625 188.724 168.958 186.839 177.74 183.328C172.531 180.266 167.344 177.182 161.979 174.417C156.292 171.38 148.547 171.63 143.755 176.281C138.083 181.552 131.802 186.182 126.516 191.839C123.464 194.885 123.901 201.083 128.214 202.693Z" fill="url(#paint12_linear_20_37)"/>
<path d="M66.0781 195.932C64.0417 193.557 62.0261 191.182 59.8698 188.927C57.5938 186.49 53.7708 185.307 50.6458 186.776C46.9844 188.401 43.1406 189.609 39.6042 191.49C37.599 192.464 36.7761 195.568 38.6094 197.078C41.4948 199.677 44.8438 201.719 47.974 204.016C50.3698 206.052 54.0156 206.5 56.7656 204.906C59.8281 203.172 62.6719 201.063 65.5156 198.979C60.8646 197.745 56.125 196.922 51.4375 195.875C56.3125 195.526 61.1927 196.172 66.0781 195.932Z" fill="url(#paint13_linear_20_37)"/>
<path d="M260.922 171.667C268.542 178.807 277.036 184.984 285.437 191.177C284.818 176.932 282.948 162.797 281.755 148.599C287.057 162.094 289.552 176.469 294.557 190.068C299.474 182.219 304.411 174.401 308.88 166.302C313.771 157.714 313.714 145.849 306.792 138.307C298.958 129.391 292.13 119.578 283.693 111.24C279.151 106.427 269.641 106.839 266.99 113.38C262.193 123.833 259.38 135.115 255.661 146.005C252.01 154.594 253.974 165.307 260.922 171.667Z" fill="url(#paint14_linear_20_37)"/>
<path d="M383.651 179.542C395.328 169.797 406.109 159.052 417.38 148.854C409.365 162.083 398.786 173.51 390.49 186.563C400.333 185.646 410.167 184.776 419.927 183.318C430.375 181.906 440.406 174.177 442.318 163.422C444.807 151.005 448.708 138.859 450.318 126.302C451.458 119.339 444.953 111.536 437.687 113.521C425.714 116.224 414.328 121.146 402.682 125.042C393.031 127.505 385.219 136.104 384.323 146.12C383.198 157.203 383.458 168.406 383.651 179.542Z" fill="url(#paint15_linear_20_37)"/>
<path d="M411.635 267.979C422 263.839 430.302 253.318 429.495 241.786C428.849 228.401 429.719 214.927 428.135 201.63C427.516 194.182 418.823 187.854 411.88 191.76C400.286 197.62 389.865 205.604 378.917 212.604C369.646 217.625 363.844 228.464 365.505 238.974C367.208 250.641 370.365 262.073 373.432 273.453C382.906 260.438 391.198 246.635 400.141 233.26C395.323 248.906 387.406 263.359 382.26 278.896C392.125 275.422 401.995 271.99 411.635 267.979Z" fill="url(#paint16_linear_20_37)"/>
<path d="M485.385 284.141C477.234 274.109 462.859 269.573 450.568 273.953C436.891 278.651 423.828 285.042 410.802 291.318C428.641 299.792 447.151 306.656 465.302 314.401C445.349 312.146 426.141 305.88 406.25 303.193C412.672 314.297 419.042 325.411 426.057 336.13C433.401 347.677 447.958 355.302 461.677 351.714C477.661 347.901 494.099 345.906 509.771 340.979C518.599 338.547 524.26 326.63 517.979 319.151C508.286 306.505 496.302 295.755 485.385 284.141Z" fill="url(#paint17_linear_20_37)"/>
<path d="M374.385 140.823C373.38 132.776 372.245 124.729 371.714 116.656C374.812 124.198 377.141 132.005 380 139.656C383.63 132.714 389.682 125.161 390.323 117.198C390.625 113.406 389.281 109.687 386.948 106.682C381.995 100.292 376.271 94.4479 370.391 88.9167C367.427 85.8958 361.578 86.4531 359.99 90.6354C356.922 98.4844 354.599 106.693 353.031 114.99C352.63 117.12 352.609 119.339 353.203 121.422C355.859 130.76 367.141 135.198 374.385 140.823Z" fill="url(#paint18_linear_20_37)"/>
<path d="M533.906 280.693C530.073 274.792 525.635 269.208 520.771 264.099C519.521 262.792 518.026 261.698 516.323 261.083C508.693 258.333 500.182 263.823 492.833 266C498.786 269.24 504.797 272.391 510.536 275.969C503.906 274.391 497.474 272.167 490.891 270.375C493.828 276.224 496.005 284.01 501.094 288.328C503.521 290.38 506.698 291.281 509.875 291.167C516.63 290.922 523.38 289.885 530.005 288.594C533.495 288.052 535.969 283.813 533.906 280.693Z" fill="url(#paint19_linear_20_37)"/>
<path d="M426.563 348.583C427.948 355.219 429.443 361.839 430.438 368.526C427.344 362.458 424.87 356.115 421.969 349.938C419.417 355.969 414.896 362.667 414.906 369.344C414.911 372.521 416.281 375.526 418.427 377.87C422.99 382.854 428.151 387.328 433.427 391.536C436.104 393.844 440.938 392.984 441.974 389.396C443.99 382.646 445.365 375.656 446.104 368.635C446.297 366.839 446.161 364.99 445.526 363.292C442.677 355.698 432.979 352.771 426.563 348.583Z" fill="url(#paint20_linear_20_37)"/>
<path d="M96.2084 247.276C106.016 251.479 114.833 257.604 124.542 262.016C122.974 255.38 121.432 248.75 119.5 242.224C117.531 235.224 111.292 229.115 103.76 228.844C95.0417 228.339 86.3698 226.839 77.6406 226.948C72.7761 226.839 68.0729 232.031 70.125 236.802C73.1198 244.719 77.5781 252.021 81.3542 259.604C83.9688 265.953 90.5886 270.464 97.5156 270.115C105.193 269.818 112.818 268.563 120.411 267.359C112.63 260.323 104.255 253.995 96.2084 247.276Z" fill="url(#paint21_linear_20_37)"/>
<path d="M90.8698 299.885C87.8437 299.339 84.8177 298.781 81.7708 298.406C78.5208 297.958 74.8698 299.443 73.401 302.51C71.6198 306.026 69.4427 309.344 67.9114 312.974C66.9896 314.969 68.2917 317.849 70.6354 317.859C74.4531 318.047 78.276 317.516 82.0937 317.318C85.1927 317.38 88.25 315.453 89.3542 312.526C90.6146 309.297 91.4635 305.911 92.3385 302.557C88.0208 304.51 83.8958 306.833 79.6667 308.953C83.1719 305.651 87.2969 303.109 90.8698 299.885Z" fill="url(#paint22_linear_20_37)"/>
<path d="M158.172 324.214C172.302 319.224 187.25 317.161 201.479 312.479C193.547 307.115 185.646 301.729 177.432 296.823C168.74 291.464 156.474 291.094 148.438 297.979C138.943 305.755 128.563 312.458 119.641 320.875C114.51 325.391 114.594 335.234 121.25 338.208C131.88 343.542 143.438 346.849 154.557 351.083C163.302 355.167 174.438 353.521 181.26 346.568C188.911 338.953 195.599 330.401 202.297 321.938C187.557 322.068 172.885 323.495 158.172 324.214Z" fill="url(#paint23_linear_20_37)"/>
<path d="M196.651 300.958C209.484 305.24 222.823 307.911 236.073 310.646C227.625 294.219 217.766 278.594 208.677 262.531C222.224 275.542 232.943 291.115 246.203 304.406C247.734 292.505 249.318 280.625 250.187 268.677C251.292 255.922 244.802 241.984 232.568 236.859C218.521 230.609 205.172 222.76 190.724 217.516C182.781 214.313 171.807 219.948 172.229 229.078C172.245 243.979 175.047 258.776 176.562 273.609C176.917 285.698 185.026 297.24 196.651 300.958Z" fill="url(#paint24_linear_20_37)"/>
<path d="M285.021 223.37C277.63 224.286 270.479 229.667 269.042 237.25C267.187 246 264.333 254.547 263.099 263.401C262.234 268.313 266.771 273.88 271.917 272.536C280.396 270.724 288.479 267.339 296.74 264.677C303.573 263.016 309.161 257 309.875 249.938C310.755 242.115 310.661 234.198 310.62 226.328C302.292 233.12 294.589 240.625 286.547 247.74C292.312 238.458 299.88 230.474 305.844 221.318C298.88 221.885 291.927 222.422 285.021 223.37Z" fill="url(#paint25_linear_20_37)"/>
<defs>
<linearGradient id="paint0_linear_20_37" x1="303.5" y1="0" x2="303.5" y2="607" gradientUnits="userSpaceOnUse">
<stop stop-color="#626C79"/>
<stop offset="1" stop-color="#B5C7DF"/>
</linearGradient>
<linearGradient id="paint1_linear_20_37" x1="151" y1="494" x2="486" y2="494" gradientUnits="userSpaceOnUse">
<stop stop-color="#737373"/>
<stop offset="1" stop-color="#D9D9D9"/>
</linearGradient>
<linearGradient id="paint2_linear_20_37" x1="309.075" y1="79.9155" x2="309.075" y2="121.229" gradientUnits="userSpaceOnUse">
<stop stop-color="#737373"/>
<stop offset="1" stop-color="#D9D9D9"/>
</linearGradient>
<linearGradient id="paint3_linear_20_37" x1="476.499" y1="181.893" x2="476.499" y2="266.858" gradientUnits="userSpaceOnUse">
<stop stop-color="#737373"/>
<stop offset="1" stop-color="#D9D9D9"/>
</linearGradient>
<linearGradient id="paint4_linear_20_37" x1="387.724" y1="297.958" x2="387.724" y2="381.91" gradientUnits="userSpaceOnUse">
<stop stop-color="#737373"/>
<stop offset="1" stop-color="#D9D9D9"/>
</linearGradient>
<linearGradient id="paint5_linear_20_37" x1="215.455" y1="326.089" x2="215.455" y2="400.57" gradientUnits="userSpaceOnUse">
<stop stop-color="#737373"/>
<stop offset="1" stop-color="#D9D9D9"/>
</linearGradient>
<linearGradient id="paint6_linear_20_37" x1="345.231" y1="126.067" x2="345.231" y2="189.021" gradientUnits="userSpaceOnUse">
<stop stop-color="#737373"/>
<stop offset="1" stop-color="#D9D9D9"/>
</linearGradient>
<linearGradient id="paint7_linear_20_37" x1="245.112" y1="188.152" x2="245.112" y2="234.54" gradientUnits="userSpaceOnUse">
<stop stop-color="#737373"/>
<stop offset="1" stop-color="#D9D9D9"/>
</linearGradient>
<linearGradient id="paint8_linear_20_37" x1="315.063" y1="188.755" x2="315.063" y2="452.042" gradientUnits="userSpaceOnUse">
<stop stop-color="#737373"/>
<stop offset="1" stop-color="#D9D9D9"/>
</linearGradient>
<linearGradient id="paint9_linear_20_37" x1="215.074" y1="116.147" x2="215.074" y2="169.917" gradientUnits="userSpaceOnUse">
<stop stop-color="#737373"/>
<stop offset="1" stop-color="#D9D9D9"/>
</linearGradient>
<linearGradient id="paint10_linear_20_37" x1="135.676" y1="105.81" x2="135.676" y2="132.971" gradientUnits="userSpaceOnUse">
<stop stop-color="#737373"/>
<stop offset="1" stop-color="#D9D9D9"/>
</linearGradient>
<linearGradient id="paint11_linear_20_37" x1="109.289" y1="152.532" x2="109.289" y2="179.979" gradientUnits="userSpaceOnUse">
<stop stop-color="#737373"/>
<stop offset="1" stop-color="#D9D9D9"/>
</linearGradient>
<linearGradient id="paint12_linear_20_37" x1="151.587" y1="172.411" x2="151.587" y2="210.514" gradientUnits="userSpaceOnUse">
<stop stop-color="#737373"/>
<stop offset="1" stop-color="#D9D9D9"/>
</linearGradient>
<linearGradient id="paint13_linear_20_37" x1="51.8335" y1="186.132" x2="51.8335" y2="205.868" gradientUnits="userSpaceOnUse">
<stop stop-color="#737373"/>
<stop offset="1" stop-color="#D9D9D9"/>
</linearGradient>
<linearGradient id="paint14_linear_20_37" x1="283.08" y1="107.998" x2="283.08" y2="191.177" gradientUnits="userSpaceOnUse">
<stop stop-color="#737373"/>
<stop offset="1" stop-color="#D9D9D9"/>
</linearGradient>
<linearGradient id="paint15_linear_20_37" x1="416.964" y1="113.207" x2="416.964" y2="186.563" gradientUnits="userSpaceOnUse">
<stop stop-color="#737373"/>
<stop offset="1" stop-color="#D9D9D9"/>
</linearGradient>
<linearGradient id="paint16_linear_20_37" x1="397.386" y1="190.569" x2="397.386" y2="278.896" gradientUnits="userSpaceOnUse">
<stop stop-color="#737373"/>
<stop offset="1" stop-color="#D9D9D9"/>
</linearGradient>
<linearGradient id="paint17_linear_20_37" x1="463.448" y1="272.285" x2="463.448" y2="352.607" gradientUnits="userSpaceOnUse">
<stop stop-color="#737373"/>
<stop offset="1" stop-color="#D9D9D9"/>
</linearGradient>
<linearGradient id="paint18_linear_20_37" x1="371.553" y1="87.0074" x2="371.553" y2="140.823" gradientUnits="userSpaceOnUse">
<stop stop-color="#737373"/>
<stop offset="1" stop-color="#D9D9D9"/>
</linearGradient>
<linearGradient id="paint19_linear_20_37" x1="512.774" y1="260.329" x2="512.774" y2="291.176" gradientUnits="userSpaceOnUse">
<stop stop-color="#737373"/>
<stop offset="1" stop-color="#D9D9D9"/>
</linearGradient>
<linearGradient id="paint20_linear_20_37" x1="430.546" y1="348.583" x2="430.546" y2="392.819" gradientUnits="userSpaceOnUse">
<stop stop-color="#737373"/>
<stop offset="1" stop-color="#D9D9D9"/>
</linearGradient>
<linearGradient id="paint21_linear_20_37" x1="97.0865" y1="226.942" x2="97.0865" y2="270.134" gradientUnits="userSpaceOnUse">
<stop stop-color="#737373"/>
<stop offset="1" stop-color="#D9D9D9"/>
</linearGradient>
<linearGradient id="paint22_linear_20_37" x1="79.9759" y1="298.328" x2="79.9759" y2="317.899" gradientUnits="userSpaceOnUse">
<stop stop-color="#737373"/>
<stop offset="1" stop-color="#D9D9D9"/>
</linearGradient>
<linearGradient id="paint23_linear_20_37" x1="159.15" y1="292.805" x2="159.15" y2="353.286" gradientUnits="userSpaceOnUse">
<stop stop-color="#737373"/>
<stop offset="1" stop-color="#D9D9D9"/>
</linearGradient>
<linearGradient id="paint24_linear_20_37" x1="211.263" y1="216.61" x2="211.263" y2="310.646" gradientUnits="userSpaceOnUse">
<stop stop-color="#737373"/>
<stop offset="1" stop-color="#D9D9D9"/>
</linearGradient>
<linearGradient id="paint25_linear_20_37" x1="286.819" y1="221.318" x2="286.819" y2="272.74" gradientUnits="userSpaceOnUse">
<stop stop-color="#737373"/>
<stop offset="1" stop-color="#D9D9D9"/>
</linearGradient>
</defs>
</svg>
