<svg width="500" height="543" viewBox="0 0 500 543" fill="none" xmlns="http://www.w3.org/2000/svg">
<path d="M163.369 447.193C163.454 448.463 163.285 450.367 162.861 452.906C162.523 455.445 161.93 457.984 161.084 460.523C160.238 463.062 159.137 465.305 157.783 467.252C156.514 469.114 155.033 470.045 153.34 470.045C152.493 470.045 151.774 469.537 151.182 468.521C150.589 467.506 150.081 466.194 149.658 464.586C149.235 462.978 148.896 461.201 148.643 459.254C148.389 457.223 148.135 455.276 147.881 453.414C147.712 451.552 147.542 449.859 147.373 448.336C147.288 446.728 147.204 445.543 147.119 444.781C146.781 444.273 146.146 443.766 145.215 443.258C144.368 442.665 143.607 442.369 142.93 442.369C142.168 442.369 141.237 443.089 140.137 444.527C139.121 445.966 138.148 447.659 137.217 449.605C136.286 451.552 135.524 453.499 134.932 455.445C134.339 457.307 134.085 458.746 134.17 459.762C134.17 460.439 134.805 461.624 136.074 463.316C137.428 465.009 139.079 466.998 141.025 469.283C142.972 471.568 145.088 474.065 147.373 476.773C149.658 479.397 151.774 482.021 153.721 484.645C155.667 487.268 157.318 489.765 158.672 492.135C160.026 494.505 160.745 496.536 160.83 498.229C160.999 500.26 160.534 502.883 159.434 506.1C158.418 509.231 157.106 512.278 155.498 515.24C153.89 518.202 152.155 520.784 150.293 522.984C148.516 525.1 146.908 526.201 145.469 526.285C144.538 526.37 143.311 525.947 141.787 525.016C140.264 524.169 138.613 523.027 136.836 521.588C135.059 520.149 133.239 518.583 131.377 516.891C129.6 515.113 127.907 513.378 126.299 511.686C124.775 509.993 123.464 508.469 122.363 507.115C121.348 505.676 120.755 504.618 120.586 503.941C120.247 502.926 120.036 501.572 119.951 499.879C119.951 498.102 120.036 496.409 120.205 494.801C120.459 493.108 120.755 491.669 121.094 490.484C121.517 489.215 122.025 488.58 122.617 488.58C123.04 488.58 123.717 489.13 124.648 490.23C125.664 491.331 126.807 492.727 128.076 494.42C129.346 496.113 130.7 497.975 132.139 500.006C133.662 501.952 135.101 503.772 136.455 505.465C137.809 507.158 139.036 508.596 140.137 509.781C141.237 510.882 142.126 511.389 142.803 511.305C143.311 511.305 143.861 510.924 144.453 510.162C145.046 509.316 145.596 508.342 146.104 507.242C146.611 506.057 147.035 504.872 147.373 503.688C147.712 502.503 147.881 501.572 147.881 500.895C147.796 499.879 146.95 498.44 145.342 496.578C143.818 494.632 141.872 492.473 139.502 490.104C137.217 487.649 134.72 485.11 132.012 482.486C129.388 479.863 126.891 477.366 124.521 474.996C122.236 472.542 120.29 470.341 118.682 468.395C117.158 466.448 116.354 464.967 116.27 463.951C116.185 462.936 116.481 461.37 117.158 459.254C117.835 457.053 118.724 454.599 119.824 451.891C121.009 449.182 122.321 446.432 123.76 443.639C125.199 440.846 126.68 438.264 128.203 435.895C129.727 433.525 131.208 431.62 132.646 430.182C134.085 428.658 135.355 427.896 136.455 427.896C137.894 427.896 139.544 428.235 141.406 428.912C143.268 429.505 145.173 430.351 147.119 431.451C149.15 432.467 151.097 433.652 152.959 435.006C154.906 436.36 156.641 437.757 158.164 439.195C159.688 440.549 160.915 441.946 161.846 443.385C162.777 444.739 163.285 446.008 163.369 447.193ZM196.377 454.557C196.969 455.064 197.52 456.038 198.027 457.477C198.62 458.915 199.128 460.65 199.551 462.682C199.974 464.713 200.355 466.913 200.693 469.283C201.032 471.653 201.328 473.98 201.582 476.266C201.836 478.551 202.005 480.709 202.09 482.74C202.259 484.687 202.386 486.295 202.471 487.564C202.555 489.088 202.598 490.696 202.598 492.389C202.682 493.997 202.682 495.562 202.598 497.086C202.598 498.525 202.513 499.837 202.344 501.021C202.259 502.206 202.09 503.095 201.836 503.688C201.328 504.957 200.439 505.846 199.17 506.354C197.985 506.777 196.631 507.073 195.107 507.242C194.346 507.327 193.034 507.369 191.172 507.369C189.395 507.285 187.448 507.2 185.332 507.115C183.301 506.946 181.354 506.777 179.492 506.607C177.63 506.438 176.234 506.269 175.303 506.1C173.441 505.676 172.087 505.126 171.24 504.449C170.479 503.772 169.717 502.799 168.955 501.529C168.701 501.021 168.49 499.752 168.32 497.721C168.151 495.605 168.024 493.108 167.939 490.23C167.939 487.268 167.982 484.094 168.066 480.709C168.151 477.324 168.278 474.107 168.447 471.061C168.701 468.014 168.955 465.348 169.209 463.062C169.548 460.777 169.971 459.254 170.479 458.492C171.325 457.307 172.764 456.207 174.795 455.191C176.911 454.176 178.815 453.372 180.508 452.779C181.354 452.525 182.454 452.356 183.809 452.271C185.247 452.102 186.729 452.102 188.252 452.271C189.86 452.356 191.383 452.61 192.822 453.033C194.261 453.372 195.446 453.88 196.377 454.557ZM189.268 493.912C189.437 493.574 189.606 492.558 189.775 490.865C190.029 489.088 190.199 486.972 190.283 484.518C190.452 482.063 190.537 479.439 190.537 476.646C190.622 473.854 190.664 471.272 190.664 468.902C190.664 466.533 190.579 464.544 190.41 462.936C190.241 461.243 190.029 460.27 189.775 460.016C189.352 459.677 188.717 459.55 187.871 459.635C187.109 459.635 186.305 459.762 185.459 460.016C184.613 460.185 183.851 460.439 183.174 460.777C182.497 461.031 182.031 461.285 181.777 461.539C180.677 462.47 180.085 463.993 180 466.109C180 466.702 179.915 468.395 179.746 471.188C179.661 473.896 179.619 476.858 179.619 480.074C179.619 483.206 179.661 486.126 179.746 488.834C179.915 491.542 180.212 493.193 180.635 493.785C181.058 494.378 181.65 494.843 182.412 495.182C183.258 495.436 184.105 495.562 184.951 495.562C185.882 495.562 186.729 495.436 187.49 495.182C188.337 494.843 188.929 494.42 189.268 493.912ZM260.742 448.844C262.35 450.198 263.535 452.906 264.297 456.969C265.059 460.947 265.355 465.39 265.186 470.299C265.101 471.822 264.889 473.938 264.551 476.646C264.212 479.27 263.789 482.19 263.281 485.406C262.858 488.538 262.35 491.754 261.758 495.055C261.25 498.355 260.742 501.402 260.234 504.195C259.727 506.988 259.261 509.358 258.838 511.305C258.499 513.167 258.288 514.267 258.203 514.605C258.034 515.198 257.568 515.79 256.807 516.383C256.045 516.975 255.241 517.483 254.395 517.906C253.633 518.245 252.871 518.499 252.109 518.668C251.348 518.753 250.882 518.583 250.713 518.16C250.628 517.906 250.628 516.594 250.713 514.225C250.798 511.855 250.924 508.935 251.094 505.465C251.263 501.91 251.432 498.144 251.602 494.166C251.855 490.104 252.067 486.295 252.236 482.74C252.406 479.186 252.575 476.181 252.744 473.727C252.913 471.188 252.998 469.664 252.998 469.156C253.083 466.533 252.871 464.247 252.363 462.301C251.855 460.27 251.009 459.254 249.824 459.254C249.401 459.254 248.893 459.465 248.301 459.889C247.708 460.227 247.116 460.65 246.523 461.158C246.016 461.666 245.508 462.216 245 462.809C244.577 463.401 244.365 463.951 244.365 464.459C244.281 465.982 244.154 468.225 243.984 471.188C243.9 474.15 243.773 477.408 243.604 480.963C243.519 484.518 243.392 488.157 243.223 491.881C243.138 495.605 243.011 499.033 242.842 502.164C242.757 505.296 242.673 507.919 242.588 510.035C242.503 512.066 242.419 513.209 242.334 513.463C242.165 513.801 241.615 514.055 240.684 514.225C239.837 514.309 238.864 514.309 237.764 514.225C236.663 514.14 235.648 513.928 234.717 513.59C233.87 513.251 233.363 512.786 233.193 512.193C233.024 511.77 232.897 510.501 232.812 508.385C232.728 506.184 232.601 503.561 232.432 500.514C232.347 497.467 232.262 494.208 232.178 490.738C232.093 487.184 232.008 483.883 231.924 480.836C231.839 477.789 231.755 475.165 231.67 472.965C231.67 470.764 231.67 469.41 231.67 468.902C231.67 466.871 231.501 465.263 231.162 464.078C230.824 462.809 230.4 461.835 229.893 461.158C229.469 460.396 228.962 459.931 228.369 459.762C227.777 459.508 227.184 459.381 226.592 459.381C226.338 459.381 225.957 459.592 225.449 460.016C224.941 460.354 224.434 460.904 223.926 461.666C223.418 462.343 222.995 463.147 222.656 464.078C222.318 464.924 222.191 465.855 222.275 466.871C222.275 467.294 222.318 468.86 222.402 471.568C222.487 474.277 222.529 477.535 222.529 481.344C222.614 485.152 222.699 489.257 222.783 493.658C222.868 498.059 222.91 502.164 222.91 505.973C222.995 509.697 223.037 512.87 223.037 515.494C223.037 518.033 223.037 519.387 223.037 519.557C222.868 519.98 222.402 520.234 221.641 520.318C220.879 520.318 220.033 520.149 219.102 519.811C218.171 519.472 217.282 519.007 216.436 518.414C215.589 517.737 214.997 516.933 214.658 516.002C214.489 515.325 214.235 513.844 213.896 511.559C213.558 509.273 213.177 506.565 212.754 503.434C212.331 500.217 211.908 496.79 211.484 493.15C211.061 489.426 210.638 485.872 210.215 482.486C209.792 479.016 209.411 475.885 209.072 473.092C208.818 470.299 208.607 468.183 208.438 466.744C208.184 464.713 207.887 462.512 207.549 460.143C207.295 457.688 207.041 455.361 206.787 453.16C206.618 450.875 206.491 448.928 206.406 447.32C206.322 445.628 206.406 444.57 206.66 444.146C206.829 443.808 207.422 443.681 208.438 443.766C209.538 443.85 210.68 444.104 211.865 444.527C213.135 444.866 214.32 445.374 215.42 446.051C216.605 446.643 217.367 447.278 217.705 447.955C217.959 448.463 218.213 449.098 218.467 449.859C218.805 450.536 219.144 451.637 219.482 453.16C220.921 452.06 222.402 451.044 223.926 450.113C225.449 449.098 226.973 448.336 228.496 447.828C230.02 447.236 231.458 446.939 232.812 446.939C234.251 446.855 235.605 447.236 236.875 448.082C237.975 448.928 239.033 450.41 240.049 452.525C244.111 450.24 248.005 448.674 251.729 447.828C255.537 446.897 258.542 447.236 260.742 448.844ZM274.326 442.242C274.749 441.48 275.638 440.507 276.992 439.322C278.346 438.053 279.954 436.783 281.816 435.514C283.763 434.244 285.837 433.102 288.037 432.086C290.238 430.986 292.438 430.266 294.639 429.928C296.924 429.505 299.04 429.589 300.986 430.182C303.018 430.689 304.753 431.874 306.191 433.736C306.953 434.667 307.673 436.529 308.35 439.322C309.027 442.115 309.661 445.501 310.254 449.479C310.931 453.372 311.523 457.73 312.031 462.555C312.539 467.294 312.962 472.161 313.301 477.154C313.639 482.063 313.851 486.93 313.936 491.754C314.105 496.493 314.105 500.895 313.936 504.957C313.851 508.935 313.597 512.363 313.174 515.24C312.835 518.033 312.285 519.98 311.523 521.08C310 523.281 307.63 524.762 304.414 525.523C301.198 526.285 297.812 526.285 294.258 525.523C290.703 524.846 287.318 523.408 284.102 521.207C280.885 519.007 278.516 516.044 276.992 512.32C275.977 509.866 275.13 506.523 274.453 502.291C273.861 498.059 273.395 493.489 273.057 488.58C272.718 483.587 272.507 478.508 272.422 473.346C272.422 468.183 272.464 463.443 272.549 459.127C272.718 454.726 272.93 451.002 273.184 447.955C273.522 444.908 273.903 443.004 274.326 442.242ZM299.209 506.607C299.717 506.1 300.055 504.745 300.225 502.545C300.479 500.26 300.605 497.594 300.605 494.547C300.69 491.415 300.69 488.115 300.605 484.645C300.605 481.174 300.605 477.958 300.605 474.996C300.605 467.464 300.352 461.624 299.844 457.477C299.336 453.329 298.743 450.24 298.066 448.209C297.305 445.839 296.458 444.358 295.527 443.766C294.258 444.02 293.2 444.443 292.354 445.035C291.507 445.543 290.83 446.135 290.322 446.812C289.73 447.574 289.264 448.378 288.926 449.225C288.672 449.986 288.376 451.467 288.037 453.668C287.783 455.868 287.529 458.492 287.275 461.539C287.021 464.501 286.768 467.76 286.514 471.314C286.344 474.785 286.175 478.212 286.006 481.598C285.921 484.983 285.837 488.199 285.752 491.246C285.752 494.208 285.794 496.663 285.879 498.609C286.048 501.572 286.725 503.73 287.91 505.084C289.18 506.438 290.534 507.327 291.973 507.75C293.411 508.089 294.808 508.089 296.162 507.75C297.601 507.411 298.617 507.031 299.209 506.607ZM352.656 446.432C353.503 446.939 354.307 447.87 355.068 449.225C355.915 450.494 356.676 452.018 357.354 453.795C358.031 455.488 358.581 457.35 359.004 459.381C359.427 461.327 359.639 463.189 359.639 464.967C359.639 466.829 359.3 469.41 358.623 472.711C358.031 475.927 357.311 479.186 356.465 482.486C355.618 485.787 354.814 488.749 354.053 491.373C353.291 493.997 352.783 495.562 352.529 496.07C352.021 498.017 351.344 499.413 350.498 500.26C349.652 500.937 348.509 501.445 347.07 501.783C345.716 502.037 344.32 502.206 342.881 502.291C341.442 502.376 340.046 502.376 338.691 502.291C337.337 502.122 336.279 501.91 335.518 501.656C335.433 501.656 335.137 501.572 334.629 501.402C334.629 504.788 334.587 508.258 334.502 511.812C334.417 514.859 334.333 518.287 334.248 522.096C334.163 525.82 334.079 529.586 333.994 533.395C333.825 534.156 333.486 535.045 332.979 536.061C332.555 537.076 332.005 538.007 331.328 538.854C330.651 539.785 329.932 540.546 329.17 541.139C328.493 541.731 327.858 541.943 327.266 541.773C326.927 541.689 326.546 540.208 326.123 537.33C325.785 534.537 325.404 530.813 324.98 526.158C324.642 521.588 324.261 516.34 323.838 510.416C323.415 504.492 323.034 498.44 322.695 492.262C322.357 486.083 322.061 480.032 321.807 474.107C321.637 468.098 321.468 462.766 321.299 458.111C321.214 453.372 321.214 449.521 321.299 446.559C321.383 443.512 321.595 441.861 321.934 441.607C322.188 441.354 322.695 441.396 323.457 441.734C324.219 441.988 325.065 442.496 325.996 443.258C327.012 443.935 328.027 444.824 329.043 445.924C330.143 446.939 331.117 448.082 331.963 449.352C336.11 447.49 340.046 446.178 343.77 445.416C347.493 444.654 350.456 444.993 352.656 446.432ZM347.324 465.094C347.324 463.74 347.113 462.428 346.689 461.158C346.351 459.804 345.885 458.661 345.293 457.73C344.701 456.715 344.066 455.953 343.389 455.445C342.796 454.853 342.246 454.641 341.738 454.811C339.622 455.318 337.845 455.911 336.406 456.588C335.645 456.926 335.01 457.307 334.502 457.73C334.671 460.439 334.756 464.163 334.756 468.902C334.84 473.557 334.883 478.678 334.883 484.264C334.883 486.718 334.967 488.368 335.137 489.215C335.221 491.246 335.729 492.643 336.66 493.404C336.914 493.658 337.295 493.954 337.803 494.293C338.311 494.547 338.861 494.801 339.453 495.055C340.046 495.224 340.638 495.351 341.23 495.436C341.823 495.436 342.331 495.266 342.754 494.928C342.839 494.843 343.008 494.081 343.262 492.643C343.6 491.119 343.939 489.299 344.277 487.184C344.616 484.983 344.954 482.656 345.293 480.201C345.716 477.662 346.055 475.335 346.309 473.219C346.647 471.018 346.901 469.156 347.07 467.633C347.24 466.109 347.324 465.263 347.324 465.094ZM374.746 487.311C376.1 486.803 377.624 486.253 379.316 485.66C381.094 484.983 382.786 484.391 384.395 483.883C386.003 483.29 387.441 482.783 388.711 482.359C389.98 481.936 390.911 481.598 391.504 481.344C391.419 480.413 391.292 479.355 391.123 478.17C391.038 476.9 390.911 475.715 390.742 474.615C390.573 473.43 390.361 472.415 390.107 471.568C389.854 470.722 389.6 470.214 389.346 470.045C388.669 469.791 387.526 469.579 385.918 469.41C384.395 469.156 382.786 469.199 381.094 469.537C379.486 469.876 378.005 470.51 376.65 471.441C375.296 472.372 374.535 473.854 374.365 475.885C374.196 477.239 374.154 478.932 374.238 480.963C374.323 482.994 374.492 485.11 374.746 487.311ZM402.295 489.342C402.21 489.511 401.195 489.85 399.248 490.357C397.301 490.865 394.974 491.415 392.266 492.008C389.557 492.516 386.68 493.066 383.633 493.658C380.586 494.166 377.962 494.589 375.762 494.928C376.185 498.313 376.693 501.36 377.285 504.068C377.878 506.692 378.385 508.342 378.809 509.02C379.232 509.612 379.782 510.162 380.459 510.67C381.051 511.093 381.771 511.516 382.617 511.939C383.548 512.278 384.648 512.532 385.918 512.701C386.849 512.955 387.738 512.617 388.584 511.686C389.261 510.839 389.854 509.358 390.361 507.242C390.954 505.126 391.25 501.783 391.25 497.213C393.874 496.79 395.905 496.536 397.344 496.451C398.867 496.367 399.967 496.367 400.645 496.451C401.491 496.536 401.999 496.663 402.168 496.832C402.253 497.086 402.253 497.721 402.168 498.736C402.083 499.752 401.872 501.021 401.533 502.545C401.279 503.984 400.941 505.592 400.518 507.369C400.179 509.062 399.756 510.712 399.248 512.32C398.74 513.844 398.19 515.24 397.598 516.51C397.005 517.695 396.37 518.541 395.693 519.049C393.662 520.572 391.123 521.334 388.076 521.334C385.029 521.249 382.025 520.826 379.062 520.064C376.1 519.218 373.434 518.245 371.064 517.145C368.695 515.96 367.214 514.986 366.621 514.225C366.198 513.717 365.817 512.447 365.479 510.416C365.14 508.3 364.844 505.761 364.59 502.799C364.421 499.837 364.294 496.578 364.209 493.023C364.124 489.469 364.167 485.999 364.336 482.613C364.59 479.228 364.928 476.096 365.352 473.219C365.859 470.341 366.536 468.014 367.383 466.236C368.652 463.697 370.726 461.624 373.604 460.016C376.481 458.408 379.528 457.307 382.744 456.715C385.96 456.122 389.007 456.038 391.885 456.461C394.847 456.884 397.048 457.815 398.486 459.254C399.333 460.1 400.094 461.793 400.771 464.332C401.449 466.786 401.872 469.791 402.041 473.346C402.041 473.684 402.083 474.658 402.168 476.266C402.253 477.874 402.295 479.609 402.295 481.471C402.38 483.248 402.422 484.941 402.422 486.549C402.422 488.157 402.38 489.088 402.295 489.342ZM446.602 470.807C446.602 472.161 446.432 474.107 446.094 476.646C445.84 479.186 445.459 481.979 444.951 485.025C444.443 487.988 443.893 491.077 443.301 494.293C442.793 497.424 442.243 500.302 441.65 502.926C441.143 505.549 440.677 507.75 440.254 509.527C439.915 511.305 439.704 512.278 439.619 512.447C439.45 512.701 438.984 512.87 438.223 512.955C437.546 512.955 436.742 512.87 435.811 512.701C434.964 512.532 434.16 512.278 433.398 511.939C432.721 511.601 432.298 511.178 432.129 510.67C432.044 510.331 432.002 509.146 432.002 507.115C432.087 505.084 432.171 502.672 432.256 499.879C432.425 497.001 432.594 493.954 432.764 490.738C432.933 487.438 433.102 484.391 433.271 481.598C433.525 478.72 433.695 476.266 433.779 474.234C433.949 472.203 434.033 470.976 434.033 470.553C434.033 469.029 433.864 467.59 433.525 466.236C433.271 464.798 432.933 463.57 432.51 462.555C432.087 461.539 431.579 460.777 430.986 460.27C430.479 459.677 430.013 459.465 429.59 459.635C428.49 459.804 427.559 460.1 426.797 460.523C426.035 460.862 425.4 461.243 424.893 461.666C424.3 462.174 423.835 462.766 423.496 463.443C423.411 463.613 423.242 464.12 422.988 464.967C422.819 465.813 422.734 466.786 422.734 467.887C422.734 468.225 422.734 469.452 422.734 471.568C422.734 473.6 422.692 476.054 422.607 478.932C422.607 481.809 422.565 484.941 422.48 488.326C422.48 491.627 422.438 494.716 422.354 497.594C422.354 500.387 422.311 502.799 422.227 504.83C422.142 506.861 422.057 508.004 421.973 508.258C421.803 508.766 421.38 509.485 420.703 510.416C420.026 511.262 419.264 512.066 418.418 512.828C417.572 513.59 416.768 514.182 416.006 514.605C415.244 514.944 414.736 514.859 414.482 514.352C414.229 514.098 413.975 512.87 413.721 510.67C413.467 508.385 413.171 505.634 412.832 502.418C412.578 499.117 412.282 495.562 411.943 491.754C411.605 487.861 411.309 484.137 411.055 480.582C410.801 477.027 410.589 473.811 410.42 470.934C410.251 468.056 410.124 465.982 410.039 464.713C409.954 462.936 409.87 460.947 409.785 458.746C409.701 456.461 409.616 454.345 409.531 452.398C409.531 450.367 409.531 448.632 409.531 447.193C409.616 445.67 409.785 444.739 410.039 444.4C410.208 444.062 410.758 443.977 411.689 444.146C412.705 444.316 413.763 444.654 414.863 445.162C416.048 445.585 417.148 446.135 418.164 446.812C419.18 447.405 419.857 447.997 420.195 448.59C420.365 449.098 420.576 449.69 420.83 450.367C421.084 450.96 421.296 451.975 421.465 453.414C422.904 452.568 424.469 451.806 426.162 451.129C427.855 450.367 429.505 449.817 431.113 449.479C432.806 449.055 434.414 448.928 435.938 449.098C437.461 449.182 438.815 449.605 440 450.367C440.762 450.96 441.523 451.975 442.285 453.414C443.132 454.853 443.851 456.546 444.443 458.492C445.12 460.439 445.628 462.512 445.967 464.713C446.39 466.829 446.602 468.86 446.602 470.807Z" fill="url(#paint0_linear_20_37)"/>
<mask id="mask0_20_37" style="mask-type:luminance" maskUnits="userSpaceOnUse" x="258" y="63" width="30" height="43">
<path d="M258.667 63.0156H288V105.333H258.667V63.0156Z" fill="white"/>
</mask>
<g mask="url(#mask0_20_37)">
<path d="M275.229 105.229C274.458 99.0521 273.583 92.875 273.177 86.6771C275.557 92.4688 277.344 98.4636 279.542 104.339C281.974 99.6875 285.818 94.6823 287.083 89.4219C288.005 85.6042 286.922 81.6198 284.495 78.5365C280.781 73.8177 276.531 69.4896 272.161 65.3802C269.885 63.0625 265.396 63.4896 264.177 66.7031C261.922 72.4896 260.182 78.526 258.984 84.6354C258.255 88.3385 259.161 92.2448 261.609 95.1146C265.172 99.2813 271.068 102 275.229 105.229Z" fill="url(#paint1_linear_20_37)"/>
</g>
<path d="M400.979 207.099C400.37 218.807 399.599 230.49 399.333 242.214C415.286 230.104 430.099 216.531 445.401 203.604C433.188 219.682 419.693 234.719 407.583 250.833C419.615 251.078 431.604 249.448 443.594 248.62C455.422 247.823 466.557 239.146 469.604 227.604C473.302 214.354 476.859 201.068 480.495 187.818C482.063 181.62 482.833 173.755 477.63 169.021C472.734 164.651 465.563 165.604 459.807 167.411C447.005 171.396 434.162 175.276 421.359 179.26C409.495 182.859 401.161 194.849 400.979 207.099Z" fill="url(#paint2_linear_20_37)"/>
<path d="M331.073 299.464C323.818 305.255 320.531 315.807 323.729 324.589C327.266 334.76 330.911 344.891 334.49 355.036C336.255 359.719 339.266 365.12 344.729 365.844C349.828 366.464 354.016 362.646 356.901 358.917C363.354 350.641 369.88 342.412 376.333 334.13C382.359 326.521 382.365 315.089 377.01 307.13C372.172 299.333 367.453 291.474 362.385 283.818C357.536 298.729 354.073 314.073 350.005 329.214C350.682 313.422 352.641 297.729 353.234 281.958C345.391 287.177 338.406 293.573 331.073 299.464Z" fill="url(#paint3_linear_20_37)"/>
<path d="M210.589 345.51C209.979 335.776 209.432 326.042 208.453 316.328C197.198 326.51 187.828 338.578 177.078 349.286C184.458 335.839 193.437 323.318 201.182 310.089C191.286 310.984 181.672 313.526 171.958 315.411C160.906 317.63 153 328.234 152.714 339.313C151.411 350.792 148.609 362.13 148.286 373.734C147.818 381.115 156.292 386.682 162.995 383.792C174.542 379.448 185.615 373.896 196.911 368.938C205.875 365.099 211.24 355.078 210.589 345.51Z" fill="url(#paint4_linear_20_37)"/>
<path d="M283.115 121.932C284.031 131.729 285.292 141.505 286.588 151.255C287.562 159 294.005 165.5 301.484 167.354C309.635 169.609 317.927 171.495 326.255 173.021C320.12 161.906 313.516 151.052 307.437 139.917C316.156 149.286 324.021 159.448 332.698 168.875C334.182 158.573 336.172 148.068 335.281 137.661C333.062 125.917 320.667 122.219 311.323 117.688C304.167 114.74 297.359 108.969 289.151 110.25C284.193 111.63 282.385 117.302 283.115 121.932Z" fill="url(#paint5_linear_20_37)"/>
<path d="M179.521 189.359C174.417 192.63 174.703 201.594 180.13 204.38C184.698 207.203 189.698 209.234 194.432 211.734C202.542 216.427 212.193 221.286 221.521 216.693C229.286 211.474 235.443 204.219 242.354 197.917C230.646 196.901 218.901 196.536 207.198 195.641C218.635 193.161 230.401 192.938 241.943 191.068C236.802 185.318 230.708 180.5 224.49 175.969C218.37 170.828 208.922 171.115 202.437 175.422C194.859 180.156 186.896 184.323 179.521 189.359Z" fill="url(#paint6_linear_20_37)"/>
<mask id="mask1_20_37" style="mask-type:luminance" maskUnits="userSpaceOnUse" x="168" y="172" width="222" height="265">
<path d="M168 172H389.333V436.016H168V172Z" fill="white"/>
</mask>
<g mask="url(#mask1_20_37)">
<path d="M290.188 335.427C293.01 323.339 299.578 312.286 307.849 303.099C327.375 281.76 355.703 272.495 382.729 264.813C360.234 267.818 337.313 271.458 316.708 281.479C306.219 286.536 297.339 294.297 289.76 303.057C292.667 254.328 310.714 203.766 350.115 172.755C327.802 178.854 310.672 195.479 297.219 213.521C293.521 207.161 290.49 200.193 284.906 195.172C272.813 183.021 254.766 180.255 238.37 180.094C249.547 182.859 261.047 186.026 270.271 193.302C280.964 201.292 286.875 214.276 288.458 227.281C286.188 233.318 282.609 238.76 279.948 244.656C269.052 268.068 262.042 293.161 257.818 318.583C250.99 311.453 242.271 306.333 232.802 303.589C214.672 298.224 195.026 298.281 176.776 303.057C205.755 302.651 237.984 311.938 255.193 336.833C251.781 361.526 251.844 386.536 254.443 411.292C224.672 413.526 195.083 421.328 168.932 435.901C192.568 431.51 216.359 427.792 240.401 426.469C290.089 423.646 340.505 424.802 389.193 436.042C363.547 420.859 333.88 413.849 304.432 411.25C298.193 386.333 291.042 361.24 290.188 335.427Z" fill="url(#paint7_linear_20_37)"/>
</g>
<path d="M159.411 136.984C160.911 144.526 167.214 150.901 174.891 152.01C183.391 153.333 192.031 153.599 200.625 153.917C193.599 144.51 185.766 135.755 178.375 126.646C188.24 133.37 196.604 142 206.318 148.932C206.021 141.313 205.76 133.698 205.042 126.115C204.385 118.005 198.849 109.953 190.635 108.031C181.172 105.599 171.974 102.089 162.365 100.328C157.042 99.1563 150.76 103.849 151.984 109.526C153.573 118.87 156.891 127.849 159.411 136.984Z" fill="url(#paint8_linear_20_37)"/>
<path d="M89.9167 110.62C91.7396 114.609 96.0781 117.328 100.49 116.932C105.38 116.557 110.219 115.568 115.031 114.615C109.891 110.313 104.396 106.479 99.0937 102.391C105.453 104.828 111.234 108.526 117.536 111.099C116.375 106.906 115.229 102.714 113.833 98.5938C112.406 94.1771 108.271 90.4323 103.458 90.4427C97.8854 90.3333 92.3125 89.5885 86.7448 89.875C83.6354 89.9219 80.7656 93.3542 82.1927 96.3438C84.2969 101.323 87.3177 105.875 89.9167 110.62Z" fill="url(#paint9_linear_20_37)"/>
<path d="M56.4583 158.344C61.4323 160.464 66.7656 161.635 71.9323 163.245C76.0156 164.849 81.0208 163.786 83.9219 160.438C87.1771 156.766 89.9688 152.693 92.7656 148.667C86.0833 149.141 79.4688 150.203 72.8125 150.948C79.0833 148.281 85.8073 146.927 92.1302 144.396C88.3802 142.188 84.6406 139.969 80.7761 137.974C76.6771 135.792 71.1042 135.969 67.6511 139.318C63.5625 143.115 59.0417 146.453 55.2344 150.526C53.0313 152.719 53.349 157.182 56.4583 158.344Z" fill="url(#paint10_linear_20_37)"/>
<path d="M92.2136 186.693C99.1198 189.635 106.531 191.266 113.698 193.495C119.37 195.719 126.318 194.25 130.344 189.599C134.865 184.5 138.74 178.849 142.63 173.255C133.349 173.917 124.161 175.396 114.922 176.427C123.625 172.724 132.958 170.839 141.74 167.328C136.531 164.266 131.344 161.182 125.979 158.417C120.292 155.38 112.547 155.63 107.755 160.281C102.083 165.552 95.8021 170.182 90.5156 175.839C87.4636 178.885 87.9011 185.083 92.2136 186.693Z" fill="url(#paint11_linear_20_37)"/>
<path d="M30.0781 179.932C28.0417 177.557 26.0261 175.182 23.8698 172.927C21.5938 170.49 17.7708 169.307 14.6458 170.776C10.9844 172.401 7.14064 173.609 3.60418 175.49C1.59897 176.464 0.776056 179.568 2.60939 181.078C5.49481 183.677 8.84376 185.719 11.974 188.016C14.3698 190.052 18.0156 190.5 20.7656 188.906C23.8281 187.172 26.6719 185.063 29.5156 182.979C24.8646 181.745 20.125 180.922 15.4375 179.875C20.3125 179.526 25.1927 180.172 30.0781 179.932Z" fill="url(#paint12_linear_20_37)"/>
<path d="M224.922 155.667C232.542 162.807 241.036 168.984 249.437 175.177C248.818 160.932 246.948 146.797 245.755 132.599C251.057 146.094 253.552 160.469 258.557 174.068C263.474 166.219 268.411 158.401 272.88 150.302C277.771 141.714 277.714 129.849 270.792 122.307C262.958 113.391 256.13 103.578 247.693 95.2396C243.151 90.4271 233.641 90.8385 230.99 97.3802C226.193 107.833 223.38 119.115 219.661 130.005C216.01 138.594 217.974 149.307 224.922 155.667Z" fill="url(#paint13_linear_20_37)"/>
<path d="M347.651 163.542C359.328 153.797 370.109 143.052 381.38 132.854C373.365 146.083 362.786 157.51 354.49 170.563C364.333 169.646 374.167 168.776 383.927 167.318C394.375 165.906 404.406 158.177 406.318 147.422C408.807 135.005 412.708 122.859 414.318 110.302C415.458 103.339 408.953 95.5365 401.687 97.5208C389.714 100.224 378.328 105.146 366.682 109.042C357.031 111.505 349.219 120.104 348.323 130.12C347.198 141.203 347.458 152.406 347.651 163.542Z" fill="url(#paint14_linear_20_37)"/>
<path d="M375.635 251.979C386 247.839 394.302 237.318 393.495 225.786C392.849 212.401 393.719 198.927 392.135 185.63C391.516 178.182 382.823 171.854 375.88 175.76C364.286 181.62 353.865 189.604 342.917 196.604C333.646 201.625 327.844 212.464 329.505 222.974C331.208 234.641 334.365 246.073 337.432 257.453C346.906 244.438 355.198 230.635 364.141 217.26C359.323 232.906 351.406 247.359 346.26 262.896C356.125 259.422 365.995 255.99 375.635 251.979Z" fill="url(#paint15_linear_20_37)"/>
<path d="M449.385 268.141C441.234 258.109 426.859 253.573 414.568 257.953C400.891 262.651 387.828 269.042 374.802 275.318C392.641 283.792 411.151 290.656 429.302 298.401C409.349 296.146 390.141 289.88 370.25 287.193C376.672 298.297 383.042 309.411 390.057 320.13C397.401 331.677 411.958 339.302 425.677 335.714C441.661 331.901 458.099 329.906 473.771 324.979C482.599 322.547 488.26 310.63 481.979 303.151C472.286 290.505 460.302 279.755 449.385 268.141Z" fill="url(#paint16_linear_20_37)"/>
<path d="M338.385 124.823C337.38 116.776 336.245 108.729 335.714 100.656C338.812 108.198 341.141 116.005 344 123.656C347.63 116.714 353.682 109.161 354.323 101.198C354.625 97.4062 353.281 93.6875 350.948 90.6823C345.995 84.2917 340.271 78.4479 334.391 72.9167C331.427 69.8958 325.578 70.4531 323.99 74.6354C320.922 82.4844 318.599 90.6927 317.031 98.9896C316.63 101.12 316.609 103.339 317.203 105.422C319.859 114.76 331.141 119.198 338.385 124.823Z" fill="url(#paint17_linear_20_37)"/>
<path d="M497.906 264.693C494.073 258.792 489.635 253.208 484.771 248.099C483.521 246.792 482.026 245.698 480.323 245.083C472.693 242.333 464.182 247.823 456.833 250C462.786 253.24 468.797 256.391 474.536 259.969C467.906 258.391 461.474 256.167 454.891 254.375C457.828 260.224 460.005 268.01 465.094 272.328C467.521 274.38 470.698 275.281 473.875 275.167C480.63 274.922 487.38 273.885 494.005 272.594C497.495 272.052 499.969 267.813 497.906 264.693Z" fill="url(#paint18_linear_20_37)"/>
<path d="M390.563 332.583C391.948 339.219 393.443 345.839 394.438 352.526C391.344 346.458 388.87 340.115 385.969 333.938C383.417 339.969 378.896 346.667 378.906 353.344C378.911 356.521 380.281 359.526 382.427 361.87C386.99 366.854 392.151 371.328 397.427 375.536C400.104 377.844 404.938 376.984 405.974 373.396C407.99 366.646 409.365 359.656 410.104 352.635C410.297 350.839 410.161 348.99 409.526 347.292C406.677 339.698 396.979 336.771 390.563 332.583Z" fill="url(#paint19_linear_20_37)"/>
<path d="M60.2084 231.276C70.0156 235.479 78.8334 241.604 88.5417 246.016C86.974 239.38 85.4323 232.75 83.5 226.224C81.5313 219.224 75.2917 213.115 67.7604 212.844C59.0417 212.339 50.3698 210.839 41.6406 210.948C36.7761 210.839 32.0729 216.031 34.125 220.802C37.1198 228.719 41.5781 236.021 45.3542 243.604C47.9688 249.953 54.5886 254.464 61.5156 254.115C69.1927 253.818 76.8177 252.563 84.4115 251.359C76.6302 244.323 68.2552 237.995 60.2084 231.276Z" fill="url(#paint20_linear_20_37)"/>
<path d="M54.8698 283.885C51.8437 283.339 48.8177 282.781 45.7708 282.406C42.5208 281.958 38.8698 283.443 37.401 286.51C35.6198 290.026 33.4427 293.344 31.9114 296.974C30.9896 298.969 32.2917 301.849 34.6354 301.859C38.4531 302.047 42.276 301.516 46.0937 301.318C49.1927 301.38 52.25 299.453 53.3542 296.526C54.6146 293.297 55.4635 289.911 56.3385 286.557C52.0208 288.51 47.8958 290.833 43.6667 292.953C47.1719 289.651 51.2969 287.109 54.8698 283.885Z" fill="url(#paint21_linear_20_37)"/>
<path d="M122.172 308.214C136.302 303.224 151.25 301.161 165.479 296.479C157.547 291.115 149.646 285.729 141.432 280.823C132.74 275.464 120.474 275.094 112.438 281.979C102.943 289.755 92.5625 296.458 83.6407 304.875C78.5104 309.391 78.5938 319.234 85.25 322.208C95.8802 327.542 107.438 330.849 118.557 335.083C127.302 339.167 138.438 337.521 145.26 330.568C152.911 322.953 159.599 314.401 166.297 305.938C151.557 306.068 136.885 307.495 122.172 308.214Z" fill="url(#paint22_linear_20_37)"/>
<path d="M160.651 284.958C173.484 289.24 186.823 291.911 200.073 294.646C191.625 278.219 181.766 262.594 172.677 246.531C186.224 259.542 196.943 275.115 210.203 288.406C211.734 276.505 213.318 264.625 214.187 252.677C215.292 239.922 208.802 225.984 196.568 220.859C182.521 214.609 169.172 206.76 154.724 201.516C146.781 198.313 135.807 203.948 136.229 213.078C136.245 227.979 139.047 242.776 140.562 257.609C140.917 269.698 149.026 281.24 160.651 284.958Z" fill="url(#paint23_linear_20_37)"/>
<path d="M249.021 207.37C241.63 208.286 234.479 213.667 233.042 221.25C231.187 230 228.333 238.547 227.099 247.401C226.234 252.313 230.771 257.88 235.917 256.536C244.396 254.724 252.479 251.339 260.74 248.677C267.573 247.016 273.161 241 273.875 233.938C274.755 226.115 274.661 218.198 274.62 210.328C266.292 217.12 258.589 224.625 250.547 231.74C256.312 222.458 263.88 214.474 269.844 205.318C262.88 205.885 255.927 206.422 249.021 207.37Z" fill="url(#paint24_linear_20_37)"/>
<defs>
<linearGradient id="paint0_linear_20_37" x1="115" y1="478" x2="450" y2="478" gradientUnits="userSpaceOnUse">
<stop stop-color="#737373"/>
<stop offset="1" stop-color="#D9D9D9"/>
</linearGradient>
<linearGradient id="paint1_linear_20_37" x1="273.075" y1="63.9155" x2="273.075" y2="105.229" gradientUnits="userSpaceOnUse">
<stop stop-color="#737373"/>
<stop offset="1" stop-color="#D9D9D9"/>
</linearGradient>
<linearGradient id="paint2_linear_20_37" x1="440.499" y1="165.893" x2="440.499" y2="250.858" gradientUnits="userSpaceOnUse">
<stop stop-color="#737373"/>
<stop offset="1" stop-color="#D9D9D9"/>
</linearGradient>
<linearGradient id="paint3_linear_20_37" x1="351.724" y1="281.958" x2="351.724" y2="365.91" gradientUnits="userSpaceOnUse">
<stop stop-color="#737373"/>
<stop offset="1" stop-color="#D9D9D9"/>
</linearGradient>
<linearGradient id="paint4_linear_20_37" x1="179.455" y1="310.089" x2="179.455" y2="384.57" gradientUnits="userSpaceOnUse">
<stop stop-color="#737373"/>
<stop offset="1" stop-color="#D9D9D9"/>
</linearGradient>
<linearGradient id="paint5_linear_20_37" x1="309.231" y1="110.067" x2="309.231" y2="173.021" gradientUnits="userSpaceOnUse">
<stop stop-color="#737373"/>
<stop offset="1" stop-color="#D9D9D9"/>
</linearGradient>
<linearGradient id="paint6_linear_20_37" x1="209.112" y1="172.152" x2="209.112" y2="218.54" gradientUnits="userSpaceOnUse">
<stop stop-color="#737373"/>
<stop offset="1" stop-color="#D9D9D9"/>
</linearGradient>
<linearGradient id="paint7_linear_20_37" x1="279.063" y1="172.755" x2="279.063" y2="436.042" gradientUnits="userSpaceOnUse">
<stop stop-color="#737373"/>
<stop offset="1" stop-color="#D9D9D9"/>
</linearGradient>
<linearGradient id="paint8_linear_20_37" x1="179.074" y1="100.147" x2="179.074" y2="153.917" gradientUnits="userSpaceOnUse">
<stop stop-color="#737373"/>
<stop offset="1" stop-color="#D9D9D9"/>
</linearGradient>
<linearGradient id="paint9_linear_20_37" x1="99.6762" y1="89.8099" x2="99.6762" y2="116.971" gradientUnits="userSpaceOnUse">
<stop stop-color="#737373"/>
<stop offset="1" stop-color="#D9D9D9"/>
</linearGradient>
<linearGradient id="paint10_linear_20_37" x1="73.2889" y1="136.532" x2="73.2889" y2="163.979" gradientUnits="userSpaceOnUse">
<stop stop-color="#737373"/>
<stop offset="1" stop-color="#D9D9D9"/>
</linearGradient>
<linearGradient id="paint11_linear_20_37" x1="115.587" y1="156.411" x2="115.587" y2="194.514" gradientUnits="userSpaceOnUse">
<stop stop-color="#737373"/>
<stop offset="1" stop-color="#D9D9D9"/>
</linearGradient>
<linearGradient id="paint12_linear_20_37" x1="15.8335" y1="170.132" x2="15.8335" y2="189.868" gradientUnits="userSpaceOnUse">
<stop stop-color="#737373"/>
<stop offset="1" stop-color="#D9D9D9"/>
</linearGradient>
<linearGradient id="paint13_linear_20_37" x1="247.08" y1="91.9981" x2="247.08" y2="175.177" gradientUnits="userSpaceOnUse">
<stop stop-color="#737373"/>
<stop offset="1" stop-color="#D9D9D9"/>
</linearGradient>
<linearGradient id="paint14_linear_20_37" x1="380.964" y1="97.207" x2="380.964" y2="170.563" gradientUnits="userSpaceOnUse">
<stop stop-color="#737373"/>
<stop offset="1" stop-color="#D9D9D9"/>
</linearGradient>
<linearGradient id="paint15_linear_20_37" x1="361.386" y1="174.569" x2="361.386" y2="262.896" gradientUnits="userSpaceOnUse">
<stop stop-color="#737373"/>
<stop offset="1" stop-color="#D9D9D9"/>
</linearGradient>
<linearGradient id="paint16_linear_20_37" x1="427.448" y1="256.285" x2="427.448" y2="336.607" gradientUnits="userSpaceOnUse">
<stop stop-color="#737373"/>
<stop offset="1" stop-color="#D9D9D9"/>
</linearGradient>
<linearGradient id="paint17_linear_20_37" x1="335.553" y1="71.0074" x2="335.553" y2="124.823" gradientUnits="userSpaceOnUse">
<stop stop-color="#737373"/>
<stop offset="1" stop-color="#D9D9D9"/>
</linearGradient>
<linearGradient id="paint18_linear_20_37" x1="476.774" y1="244.329" x2="476.774" y2="275.176" gradientUnits="userSpaceOnUse">
<stop stop-color="#737373"/>
<stop offset="1" stop-color="#D9D9D9"/>
</linearGradient>
<linearGradient id="paint19_linear_20_37" x1="394.546" y1="332.583" x2="394.546" y2="376.819" gradientUnits="userSpaceOnUse">
<stop stop-color="#737373"/>
<stop offset="1" stop-color="#D9D9D9"/>
</linearGradient>
<linearGradient id="paint20_linear_20_37" x1="61.0865" y1="210.942" x2="61.0865" y2="254.134" gradientUnits="userSpaceOnUse">
<stop stop-color="#737373"/>
<stop offset="1" stop-color="#D9D9D9"/>
</linearGradient>
<linearGradient id="paint21_linear_20_37" x1="43.9759" y1="282.328" x2="43.9759" y2="301.899" gradientUnits="userSpaceOnUse">
<stop stop-color="#737373"/>
<stop offset="1" stop-color="#D9D9D9"/>
</linearGradient>
<linearGradient id="paint22_linear_20_37" x1="123.15" y1="276.805" x2="123.15" y2="337.286" gradientUnits="userSpaceOnUse">
<stop stop-color="#737373"/>
<stop offset="1" stop-color="#D9D9D9"/>
</linearGradient>
<linearGradient id="paint23_linear_20_37" x1="175.263" y1="200.61" x2="175.263" y2="294.646" gradientUnits="userSpaceOnUse">
<stop stop-color="#737373"/>
<stop offset="1" stop-color="#D9D9D9"/>
</linearGradient>
<linearGradient id="paint24_linear_20_37" x1="250.819" y1="205.318" x2="250.819" y2="256.74" gradientUnits="userSpaceOnUse">
<stop stop-color="#737373"/>
<stop offset="1" stop-color="#D9D9D9"/>
</linearGradient>
</defs>
</svg>
